<svg id="图层_1" data-name="图层 1" xmlns="http://www.w3.org/2000/svg" viewBox="0 0 364.91 106.61"><defs><style>.cls-1{fill:#3d62ac;}.cls-1,.cls-3{fill-rule:evenodd;}.cls-2{fill:#fff;}.cls-3{fill:#231815;}</style></defs><title>logo</title><path class="cls-1" d="M2,66.7H9.2a9.52,9.52,0,0,0,4.11-.84,6.89,6.89,0,0,0,2.81-2.81,17.14,17.14,0,0,0,1.3-3.26l2.36-7.17H39.53l2.64,8.15a10.37,10.37,0,0,0,2.37,3.78c1.51,1.32,2.87,1.9,5.63,2.13h9.68l-18-53.62A25.85,25.85,0,0,1,40.67,8.6a5.45,5.45,0,0,1,0-1.81,1.11,1.11,0,0,1,.16-.42,3.71,3.71,0,0,0,.37-2.06,2.73,2.73,0,0,0-1.15-1.88,3.36,3.36,0,0,0-1.44-.49A23,23,0,0,0,35.29,2a20.75,20.75,0,0,0-3.64.73,18.92,18.92,0,0,0-3.92,1.63,19.1,19.1,0,0,0-3.64,2.8,17.66,17.66,0,0,0-2.72,3.36A26.44,26.44,0,0,0,19.16,15L2,66.7Zm6.26-4.52L22.86,18.06a15.72,15.72,0,0,1,5.69-8.45,10.55,10.55,0,0,1,7.66-3,7.42,7.42,0,0,0-.11,2.08,29.31,29.31,0,0,0,1,4.41l16.45,49H50.86a7.36,7.36,0,0,1-2.18-.24c-1.56-.31-2.3-2.88-2.3-2.88l-3.56-11H16.56l-4,12a3.94,3.94,0,0,1-.9,1.48,2.52,2.52,0,0,1-2,.61Z" transform="translate(-2.01 -1.92)"/><path class="cls-1" d="M18.34,44.17H41L31.67,16.11a2.46,2.46,0,0,0-2.27-1.2,2.32,2.32,0,0,0-1.9,1.17L18.34,44.17Zm6.25-4.53,5-15.37,5.15,15.37Z" transform="translate(-2.01 -1.92)"/><path class="cls-1" d="M91.76,66.71V14.65s-.07-3.07-.72-3.87a3.77,3.77,0,0,0-.95-1.15A6.53,6.53,0,0,1,89,8a3,3,0,0,1,.09-2.47A2.86,2.86,0,0,1,91,4.08a3.89,3.89,0,0,1,1-.16h27.28s9.49-.35,15.38,4.21a17.47,17.47,0,0,1,7,15.31s0,6.62-4,10.88a20.56,20.56,0,0,1-5.75,4.41l13.59,28H135s-4.38.15-6.78-3a13.56,13.56,0,0,1-2.1-3.29l-8.71-18.69H106.31V59.47s.22,4.16-3.24,6.23a8,8,0,0,1-3.91,1l-7.4,0Zm4.55-4.57,2.38,0a3.14,3.14,0,0,0,1.39-.11c1.89-.59,1.7-2.83,1.7-2.83l0-21.95h18.68l9.48,20.68c.45.87,1.4,2.63,1.4,2.63,1,1.72,4,1.66,4,1.66l3,0L125.75,36.37c8.53-2.41,10.24-8,10.24-8a15,15,0,0,0-.93-13.35c-4.64-7.39-16.13-6.59-16.13-6.59l-24.2,0a7,7,0,0,1,.94,1.49,16.52,16.52,0,0,1,.61,4.88Z" transform="translate(-2.01 -1.92)"/><path class="cls-1" d="M102.26,33.29h16.05s6.93-.15,9.89-4a10.45,10.45,0,0,0,2.31-8.65s-.44-4.68-6.1-7.17a15.44,15.44,0,0,0-6.28-1.07h-15.9l0,20.88Zm4.53-4.58,0-11.78,10.8,0a20.32,20.32,0,0,1,4.95.47,4.83,4.83,0,0,1,3.47,5,5.73,5.73,0,0,1-1.66,4.47c-2.28,2.37-6.94,1.89-6.94,1.89Z" transform="translate(-2.01 -1.92)"/><path class="cls-1" d="M168,3.94V17.09h20V66.73h15.4V17.11H214s4.38,0,6.75-2.9a14.62,14.62,0,0,0,2.41-4.11l2.55-6.15Zm4.54,4.55h46.33l-.57,1.37a4.71,4.71,0,0,1-.83,1.27,5.79,5.79,0,0,1-4.57,1.42H198.86V62.19h-6.36V12.56H172.57Z" transform="translate(-2.01 -1.92)"/><path class="cls-1" d="M267.41,66.7h-11V21.23h11v4.69c.62-2.54.81-3.91,3-4.11v-15H256.19V3.93h51.58V6.86H293.49V21.53h6.87c5.23,0,7.6,2.64,7.6,7.92V58.78c0,5.69-1.88,7.63-7.14,7.63h-29.9c-2.61,0-3.52-1.76-3.52-5.87V66.7Zm3-29V24.76h-.69c-1.69,0-1.66.78-2.28,2.34V60.54c.62,2,1.37,2.93,3.06,2.93h23.25c2.15,0,3-1.36,3-4.11V49.1h-6.29c-4.82,0-6.64-2.73-6.64-10.56V24.76h-3.36V38.54c0,9.6-4.59,13.89-13.19,12.9,2.3-2.14,2.94-6.75,3.09-13.78Zm24.1-12.9h-1V38c0,6.26-.37,8.22,2.5,8.22h.76v-17c0-2.93,0-4.39-2.28-4.39Zm-14-17.9V21.53h3.36V6.86Z" transform="translate(-2.01 -1.92)"/><circle class="cls-2" cx="259.93" cy="24.96" r="2.15"/><circle class="cls-2" cx="259.93" cy="59.14" r="2.15"/><path class="cls-1" d="M366.92,66.71H330c-6.64,0-9.55-3.57-9.55-11.3V4.3h11.21V8.54c1.08-2.46,2.63-3.67,6.15-3.67H364.9V8H338.39c-3.66,0-5.4,1.12-6.76,3.39V56.54c1.23-2.52,2.11-5,3.75-8.19,1.74-3.39,3.17-7.81,5.74-13.26-2.84-6.22-5.45-13.84-9-22.88h10.63a133.2,133.2,0,0,0,4.34,12.71c.81-1.88,1.65-4.77,3.5-8.76.6-1.29,1-2.63,1.64-4h10.26c-2,4.34-4.47,11.87-9.21,22.59,2.44,5.46,3.53,10.45,5.57,14.22a6.78,6.78,0,0,0,.57,1.25c2.1,4.11,3.7,6.85,5.74,8.36C357.33,60.12,352,58.14,350,53c-1-2.55-1.49-5.37-2.71-8-1.22,2.64-2.44,4.89-3.47,7.06-2.63,5.56-6.24,7.81-11.8,6.49.81,3.39,2.4,5.36,5.51,5.36h29.37Z" transform="translate(-2.01 -1.92)"/><circle class="cls-2" cx="324.05" cy="7.82" r="2.07"/><circle class="cls-2" cx="324.05" cy="58.86" r="2.07"/><path class="cls-1" d="M74,51a7.87,7.87,0,1,1-7.87,7.87A7.87,7.87,0,0,1,74,51Zm0,4.53a3.33,3.33,0,1,0,3.33,3.33A3.33,3.33,0,0,0,74,55.51Z" transform="translate(-2.01 -1.92)"/><path class="cls-1" d="M160.47,51a7.87,7.87,0,1,1-7.87,7.87A7.87,7.87,0,0,1,160.47,51Zm0,4.54a3.33,3.33,0,1,0,3.33,3.33A3.33,3.33,0,0,0,160.47,55.52Z" transform="translate(-2.01 -1.92)"/><path class="cls-1" d="M226.59,51a7.87,7.87,0,1,1-7.87,7.87A7.87,7.87,0,0,1,226.59,51Zm0,4.54a3.33,3.33,0,1,0,3.33,3.33A3.33,3.33,0,0,0,226.59,55.52Z" transform="translate(-2.01 -1.92)"/><path class="cls-3" d="M11.51,82A23,23,0,0,0,9,78.6l1.8-1.14A32.8,32.8,0,0,1,13.38,82h5.45a21,21,0,0,0,2.94-5,7.88,7.88,0,0,0,2.17,1.24.3.3,0,0,1,.27.3c0,.16-.14.3-.43.43q-1.07.43-2.91,3a73.33,73.33,0,0,0,7.72-.33v2.14q-3.91-.33-10.92-.33v3.21q5.48,0,9.05-.27v2q-3.57-.27-9.05-.27v3.47q7.52,0,12.56-.43V93.6q-5.28-.44-13.73-.43T2.76,93.6V91.19q5,.43,13,.43V88.15q-6.78,0-9.52.27v-2q2.67.27,9.52.27V83.51q-8.65,0-11.73.33V81.7q3.11.3,7.52.3Zm3.27,16.57q-8.12,0-11.43.34V96.7Q7.47,97,15.25,97a14.56,14.56,0,0,0,.37-3,5.63,5.63,0,0,0,2.37.4c.25,0,.37.07.37.2s-.12.32-.37.57a5,5,0,0,0-.8,1.84q9.29,0,12.69-.33v2.21q-4.28-.33-12-.34a19,19,0,0,0,13.26,7.28,3.52,3.52,0,0,0-1.3,2.17q-9-2.47-13.26-8.79-2.5,6.31-13,9.29A3.52,3.52,0,0,0,2,106.62a24.65,24.65,0,0,0,8.37-3.12A10.17,10.17,0,0,0,14.78,98.57Z" transform="translate(-2.01 -1.92)"/><path class="cls-3" d="M63.31,83.34q-7.55,0-12.46.27V81.47q4.91.27,12.53.27l.07-1.44a11.29,11.29,0,0,0-.27-2.94q1,.1,2.74.1c.16,0,.23,0,.23.15s-.1.22-.28.35a.91.91,0,0,0-.37.55,8.23,8.23,0,0,0-.12,1.25l-.1,2q8.89,0,12.73-.27v2.14q-3.84-.27-12.76-.27l-.17,3.61q5.81,0,9.62-.17-.1,2.44-.1,5t.1,4.19l-5.91-.1V103a2.06,2.06,0,0,0,.32,1.22,1.72,1.72,0,0,0,1.29.48c.64,0,1.44.07,2.39.07a8,8,0,0,0,2.15-.22,1.85,1.85,0,0,0,1.14-1,9.35,9.35,0,0,0,.7-2.57,3.63,3.63,0,0,0,2.14,1.07,11.41,11.41,0,0,1-1.29,3.12,3.05,3.05,0,0,1-2.44,1.24q-1.72.15-3.36.15c-2.47,0-3.94-.24-4.38-.7a3,3,0,0,1-.67-2.1v-8h-5a12.29,12.29,0,0,1-2.49,7.55c-1.52,1.82-4,3.44-7.47,4.84a3.41,3.41,0,0,0-1.94-1.77q5.68-1.9,7.83-4.24a9.12,9.12,0,0,0,2.19-6.35q-3.41,0-5.58.1.2-2.3.2-4.58t-.2-4.61q3.57.17,8.89.17l.13-3.61Zm9.39,11V88.62H56.46V94.3Z" transform="translate(-2.01 -1.92)"/><path class="cls-3" d="M110.92,81.84a19.26,19.26,0,0,0-2.34-3.51l1.8-1.1a29.26,29.26,0,0,1,2.6,4.61q9,0,11.93-.2v6.28h-2.14V83.51h-22v4.74H98.72V81.64q3,.2,12.19.2ZM117.1,95.4q5.31-3.21,5.91-3.21l.33.07c.2,0,.3-.08.3-.25a.56.56,0,0,0-.17-.42,13.06,13.06,0,0,1-1.57-1.77q-2,2.34-8.15,5.58A25.39,25.39,0,0,0,110,90.52a20.88,20.88,0,0,0,2-2.14q7.15,0,8.79.17V86.48q-2.84.23-8.6.24t-9.5-.24v2.11q2.5-.2,7-.2a17.64,17.64,0,0,1-4.83,3.67,30.3,30.3,0,0,1-7,2.3,4.53,4.53,0,0,1,1.47,2.14,38.77,38.77,0,0,0,9.35-4.91q1,1.13,1.4,1.7a21.45,21.45,0,0,1-4.74,3.91,24.84,24.84,0,0,1-5.95,2.4,2.45,2.45,0,0,1,1.64,2,32.35,32.35,0,0,0,10.09-6.85,17.44,17.44,0,0,1,1.2,2.1,24.1,24.1,0,0,1-6.53,5.48,19,19,0,0,1-7.4,2.51,4.51,4.51,0,0,1,1.44,2.1A33.34,33.34,0,0,0,113,98.87q.07.67.07,1.37a15.8,15.8,0,0,1-.47,3.86c-.3,1.21-1.38,1.82-3.21,1.82a20.25,20.25,0,0,1-2.31-.17,4.41,4.41,0,0,1,1.17,2.61,12.39,12.39,0,0,0,4.23-.88,3.75,3.75,0,0,0,2-2,10.78,10.78,0,0,0,.53-3.82,16.62,16.62,0,0,0-.6-4.58q.93-.6,1.37-.83a19.42,19.42,0,0,0,9,9.59,4,4,0,0,1,1.7-1.94,24.28,24.28,0,0,1-5.93-3.59A14.15,14.15,0,0,1,117.1,95.4Z" transform="translate(-2.01 -1.92)"/><path class="cls-3" d="M161.95,93.48q-6.68,0-9.92.27-.54,8.92-4.18,14a3.61,3.61,0,0,0-2.34-1,20,20,0,0,0,3.66-7.18,48.08,48.08,0,0,0,1-11.16q0-4.11-.27-9a107.15,107.15,0,0,0,11.39.3,109.51,109.51,0,0,0,11.46-.3,35.43,35.43,0,0,0-.2,4.13,44,44,0,0,0,.2,4.43,80,80,0,0,0-8.72-.23v4.07q6.48,0,10.49-.3v2.27q-3.81-.33-10.49-.33v3.91q5.31,0,8.55-.07a12.48,12.48,0,0,0-.1,1.8v5.51a19.85,19.85,0,0,0,.2,3H170.4V106H155.87v1.9h-2.2a25.12,25.12,0,0,0,.2-3.11V99.12a6.75,6.75,0,0,0-.17-1.8q3.67.07,8.25.07V93.48Zm8.52-7.38V81.45H152.23v4.64Zm-18.34,5.51q3.47.23,9.82.23V87.76h-9.75q0,2.74-.07,3.84ZM170.4,104.4V99H155.87v5.38Z" transform="translate(-2.01 -1.92)"/><path class="cls-3" d="M201.36,81.7l-1.57,1.1a30.82,30.82,0,0,0-3.41-3.94l1.4-1.3a32.55,32.55,0,0,1,3.57,4.14Zm7.12,1.13a33.65,33.65,0,0,1-2.71,4.48,7.52,7.52,0,0,0-1.74-.74,17.93,17.93,0,0,0,2.62-3.82,28.09,28.09,0,0,0,1.79-5c.91.29,1.55.48,1.89.55s.52.21.52.4a.35.35,0,0,1-.27.37,1.06,1.06,0,0,0-.52.45,17,17,0,0,0-.89,1.7H219a13.77,13.77,0,0,0,3.61-.33v2.17a16.64,16.64,0,0,0-3.47-.24Zm-10.16,7.22.1-4.64q3.57,0,6,.23v-2a59.33,59.33,0,0,1-6,.23,43.88,43.88,0,0,1-5.45-.23v2a23.56,23.56,0,0,1,3.44-.2c0,3.56-.06,6.13-.15,7.68s-.31,3.33-.62,5.28a25.81,25.81,0,0,1-1.17,4.83,11.49,11.49,0,0,1-1.77,3.22,3.63,3.63,0,0,1,2.34.6q2.64-5.14,3.14-15.57H202l-.4,9.25a3.54,3.54,0,0,1-.57,2.11,1.89,1.89,0,0,1-1.49.57,14.64,14.64,0,0,1-2.12-.17,3.89,3.89,0,0,1,.74,2.24,14,14,0,0,0,3.39-.43,2.13,2.13,0,0,0,1.39-1.2,10.14,10.14,0,0,0,.5-2.94l.5-11.12a39.08,39.08,0,0,1-5.58.27Zm20.78-2.61v-1c0-.72.1-1.19.27-1.34s.27-.27.27-.33-.08-.1-.23-.1a10.1,10.1,0,0,1-2.44-.2,19.94,19.94,0,0,1,.2,3h-6.31V86.31c0-.74.1-1.2.27-1.32s.27-.23.27-.33-.11-.15-.33-.15l-1.1,0q-.6,0-1.2,0a22.82,22.82,0,0,1,.2,2.94q-.67,0-2.84-.17v1.87l2.84-.13V99.44l-3.91-.2v1.9q2-.23,8.52-.23t9.29.23v-1.9l-3.74.2V89l3,.13V87.28q-1.17.1-3,.17ZM217.16,89v2.5h-6.31V89Zm0,6.65h-6.31V93h6.31V95.6Zm0,3.91h-6.31V97.07h6.31v2.44Zm-7,2a3.69,3.69,0,0,0,1.7,1.14.31.31,0,0,1,.23.33c0,.27-.08.4-.23.4a2.86,2.86,0,0,0-1.64,1,24.24,24.24,0,0,1-4.84,3.61,3.88,3.88,0,0,0-1.74-1.37q4.88-2.34,6.51-5.11ZM222.5,106l-1.37,1.67a41,41,0,0,0-5.31-4.74l1.07-1.3A67.17,67.17,0,0,1,222.5,106Z" transform="translate(-2.01 -1.92)"/><path class="cls-3" d="M253.74,82.58q-8.49,0-12.06.27V80.67q3,.27,13.88.27t14-.27v2.17q-2.84-.27-13.7-.27v19.74a57.37,57.37,0,0,0,.3,5.75h-2.71a56.53,56.53,0,0,0,.3-5.75V82.58Zm14.53,14q-3.44-3.68-8.89-8.52l-1.24,1.27A71.33,71.33,0,0,1,266.5,98Z" transform="translate(-2.01 -1.92)"/><path class="cls-3" d="M311.25,79.15a12.65,12.65,0,0,0-.2,2.47V87a17.59,17.59,0,0,0,.2,2.51,51.16,51.16,0,0,0-7.58-.37,68.68,68.68,0,0,0-8.52.4,13.3,13.3,0,0,0,.23-2.54V81.62a10.3,10.3,0,0,0-.23-2.47,56.83,56.83,0,0,0,8,.37,58.41,58.41,0,0,0,8.08-.37Zm-13.73,2.14v6.15h11.43V81.29Zm-5.08,22.22v2.94h-2.24a27.82,27.82,0,0,0,.27-3.87V96a16.11,16.11,0,0,0-.27-3.37,43.1,43.1,0,0,0,5.9.33,40.85,40.85,0,0,0,5.8-.33,19.53,19.53,0,0,0-.27,3.44v6.51a22.35,22.35,0,0,0,.23,3.51h-2.27V103.5Zm7.15-1.74V94.61h-7.15v7.15Zm7.42,1.87v2.64h-2.14a31.34,31.34,0,0,0,.23-3.87V96a25.14,25.14,0,0,0-.23-3.34,54.73,54.73,0,0,0,11.76,0A22.74,22.74,0,0,0,316.4,96v6.35a32.62,32.62,0,0,0,.2,3.51h-2.2v-2.2Zm7.38-1.74V94.65H307v7.25Z" transform="translate(-2.01 -1.92)"/><path class="cls-3" d="M353.11,81.55a15.93,15.93,0,0,0,1.4-4,5.49,5.49,0,0,0,2,.68c.54.05.82.16.82.32s-.13.31-.4.47a8.18,8.18,0,0,0-2,2.61,75.65,75.65,0,0,0,9.62-.33,16.74,16.74,0,0,0-.23,3.47v7.11a17.64,17.64,0,0,0,.23,3.34q-1.84-.13-4.78-.2v4.68q5.25,0,7-.17v1.94q-1.94-.2-7-.2v1.54a42.55,42.55,0,0,0,.27,5.31h-2.41a44.54,44.54,0,0,0,.27-5.31v-1.54h-5c-2.6,0-4.63.07-6.08.2V99.49q1.1.1,3.34.17A25,25,0,0,0,353.45,95q-2.84,0-4.61.2a20.47,20.47,0,0,0,.27-3.37V84.73a17.34,17.34,0,0,0-.27-3.47,24.58,24.58,0,0,0,4.28.3Zm2.47,6a21.06,21.06,0,0,0,.17-2.54q0-1.17,0-2h-4.81V87.6Zm2-4.51q0,2.47-.2,4.51h5V83.09Zm-3.41,10.32a16.86,16.86,0,0,0,1.2-4.34h-4.48v4.34Zm3-4.34A21.26,21.26,0,0,1,356,93.41h6.38V89.07Zm-1.84,5.88a25.76,25.76,0,0,1-3,4.71h5.51V94.95Zm-15.1-5h4a30.59,30.59,0,0,1,3.91.17v-2a24,24,0,0,1-2.47.17V80.62a1.26,1.26,0,0,1,.64-1.17.4.4,0,0,0,.23-.35q0-.22-.4-.22a10.42,10.42,0,0,1-2.67-.33,16,16,0,0,1,.33,3.88v5.85h-3.61c0-5.52.17-8.41.43-8.64s.4-.43.4-.6-.12-.25-.37-.25a9.42,9.42,0,0,1-2.64-.33,81.76,81.76,0,0,1,.37,9.87,91.92,91.92,0,0,1-.52,11.34,18.4,18.4,0,0,1-2.29,6.88,3.86,3.86,0,0,1,2.37.87,33.51,33.51,0,0,0,2.1-11.52H344v7.88a36.56,36.56,0,0,1-.2,3.91H346c-.09-1.14-.13-2.45-.13-3.91V96.42a11.74,11.74,0,0,1,.13-2.17,18,18,0,0,1-2.44.13h-3.37Q340.25,91.77,340.25,89.9Z" transform="translate(-2.01 -1.92)"/></svg>