<svg id="图层_1" data-name="图层 1" xmlns="http://www.w3.org/2000/svg" viewBox="0 0 254.4 82.7">
  <defs>
    <style>
      .cls-1 {
        fill: #a50331;
      }

      .cls-2 {
        fill: #fff;
      }

      .cls-3 {
        fill: none;
      }
    </style>
  </defs>
  <title>art</title>
  <g>
    <g>
      <g>
        <path class="cls-1" d="M23.7,28.7c5.8,4.4,6.2,13.9,2,18.5a12.35,12.35,0,0,1-11.6,3.5c-1.3-.3-1-.8,0-.7a12,12,0,0,0,10.1-3.6c3.3-4,2.2-12.1-2-15a13.36,13.36,0,0,0-11.3-1.3,7,7,0,0,1,3.8,2.3A5.22,5.22,0,0,1,15.9,36c-.3,1.9-2.4,2.7-3.6.8-1.3-2.2,1.3-2.9-.4-4.8s-3.8-.8-5.4.5A5.08,5.08,0,0,0,4.8,34c-4.5,5.3-4,14.7,3,20.3,3.2,2.4,6.8,3.1,11.6,3.1,11.3-1,18.3-12.4,26.3-24.3-8.6-8.2-20-7-20-7-.3,0-.5-.4-.1-.5,2.1-.8,8.2-.8,14.6,1.3a6.66,6.66,0,0,1,.7.3,3.6,3.6,0,0,1-1.3-3.9,3.18,3.18,0,0,1,2.2-2.6c1.7-.4,3.6.8,3.1,2.5a1.6,1.6,0,0,1-2,.8,1.34,1.34,0,0,0-1.8,1.4,3,3,0,0,0,1,2.1c.3.2.2.2.8.6a27,27,0,0,1,4.4,2.4c6.1-9.1,13-18.3,22.8-23.3a6.12,6.12,0,0,0-6-5H7.8A6.06,6.06,0,0,0,1.7,8.3V32.4a14.31,14.31,0,0,1,1.1-1.5C7.4,25.4,17,23.3,23.7,28.7Z" transform="translate(5.4 5)"/>
        <path class="cls-1" d="M51.4,33.9c2.7,2.6,5.4,7,7.5,11.4C60.4,34.2,63.6,19.9,70.2,10V9C62.8,14.9,57.2,24.6,51.4,33.9Z" transform="translate(5.4 5)"/>
        <path class="cls-1" d="M65,57.3l-7.5,3.9v-.3l-.1.1s.4-9.4-8.2-23.5C41.7,49,33.4,59,19.7,59c-5.4,0-10-1.4-13.6-4.2a16.17,16.17,0,0,1-4.3-5.2v15a6.06,6.06,0,0,0,6.1,6.1H64.2a6.06,6.06,0,0,0,6.1-6.1V14.1C64.1,30.5,64.5,52.1,65,57.3Z" transform="translate(5.4 5)"/>
      </g>
      <g>
        <g>
          <path class="cls-2" d="M235.1,3.6H197.9V10H212V45.1h8.1V10h8.5a5,5,0,0,0,5.3-3.6Z" transform="translate(5.4 5)"/>
          <path class="cls-2" d="M130,36.9a4.19,4.19,0,0,0-4.1,4.1,4.1,4.1,0,1,0,4.1-4.1Z" transform="translate(5.4 5)"/>
          <path class="cls-2" d="M195.2,41a4,4,0,0,0-4-4.1,4.1,4.1,0,1,0,0,8.2A4,4,0,0,0,195.2,41Z" transform="translate(5.4 5)"/>
          <path class="cls-2" d="M233.8,41a4.05,4.05,0,1,0,8.1,0,4.12,4.12,0,0,0-4.1-4.1A4,4,0,0,0,233.8,41Z" transform="translate(5.4 5)"/>
          <path class="cls-2" d="M178.3,45.1l-9.3-19c4.9-2,7.4-5.4,7.4-10.8a10,10,0,0,0-3.5-8.2c-2.3-2.3-6-3.5-11.1-3.5H142.7c-.7,0-1.4.5-.4,1.6,1.2,1.1,1.5,2.3,1.6,4.5V45.1h3.5c.7,0,3.9.1,3.9-3.9V27.5h10.2l6.7,14.2c1,2,2.1,3.4,5.1,3.4ZM166.6,19.8a10,10,0,0,1-6,1.7h-9.2V9.6h9.8a7.89,7.89,0,0,1,5.5,1.7,4.65,4.65,0,0,1,1.9,3.9A5.83,5.83,0,0,1,166.6,19.8Z" transform="translate(5.4 5)"/>
          <path class="cls-2" d="M105.2,3.3c.3-.5.3-1.1-.5-1.1a14,14,0,0,0-6.2,1.2,12.76,12.76,0,0,0-6.3,7.8C88.3,23.1,85,33.1,81,45.1h3.1c2.1,0,3.4-.6,4.2-3.1l2.3-6.8h16.1l2.2,6.7c.9,2.4,2.2,3.3,5.1,3.3h4.1L105.5,8C104.9,5.6,104.8,4.2,105.2,3.3ZM98.6,29.2h-6l6-18.4v.1l6.1,18.3Z" transform="translate(5.4 5)"/>
        </g>
        <g>
          <path class="cls-2" d="M81,68.7a7.54,7.54,0,0,0,3.9-.8,4.47,4.47,0,0,0,1.9-1.6H81.5V64.6l1.8.1h4.1a3.54,3.54,0,0,1,.1-.6v-.4H83.3l-2,.1V62.1l2,.1h4.1v-.8H83V59.9l1.4.1h2.9v-.9H83.1l-1.7.1V57.6l1.8.1H85c-.2-.4-.4-.7-.5-.9l-.4-.5c.5-.2.9-.3,1.1-.4l.5-.3.6.9a5.2,5.2,0,0,1,.3.5l.3.4-.6.3H90l-.6-.3a5,5,0,0,0,.9-1.3l.2-.5c.4.2,1,.5,1.7.8-.3.5-.6.9-.9,1.4h1.9l1.8-.1v1.6l-1.8-.1H89.1v.9H92l1.6-.1v1.6l-1.5-.1H89.2v.8h4.5l1.7-.1v1.7l-1.7-.1h-5a1.48,1.48,0,0,0,.7.1c-.1.3-.1.6-.2.8h4.4l1.7-.1v1.7H89.9c.2.2.4.5.8.9a4,4,0,0,0,2.1,1,19.85,19.85,0,0,0,3,.6,4.11,4.11,0,0,0-.7,1.2l-.2.5A11.54,11.54,0,0,1,90.5,69a9.13,9.13,0,0,1-2-1.9,6.56,6.56,0,0,1-1.6,1.7,7,7,0,0,1-2.3,1,13.18,13.18,0,0,1-2.6.5,1,1,0,0,1-.1-.4C81.7,69.9,81.5,69.5,81,68.7Z" transform="translate(5.4 5)"/>
          <path class="cls-2" d="M108.2,57.4V55.7h2.1v1.7h5.9v1.8h-5.9V60h3.9v5.1H112v2.8c0,.3,0,.4.1.5a4.17,4.17,0,0,0,1.1.2c.7,0,1.1,0,1.3-.2a2.19,2.19,0,0,0,.3-.5c.1-.3.1-.6.2-.9v-.4a7.62,7.62,0,0,0,2,.6c0,.2-.1.4-.1.6a4.08,4.08,0,0,1-.2.7l-.3.9a1.78,1.78,0,0,1-.7.8,3.82,3.82,0,0,1-1.9.3c-1.6,0-2.7,0-3.1-.3a1.08,1.08,0,0,1-.7-1.1V65h-1.3a8.81,8.81,0,0,1-.2,1.7,6.39,6.39,0,0,1-.6,1.6,2.9,2.9,0,0,1-1.7,1.3c-.8.3-1.8.6-2.8.9a4.17,4.17,0,0,1-.2-.6c-.1-.2-.3-.7-.6-1.4,1.9-.2,3-.5,3.4-1a3.74,3.74,0,0,0,.7-1.6l.1-.9h-2.1V59.9h3.7v-.8h-6V57.3H104Zm-1.8,5.9h5.7V61.7h-5.7Z" transform="translate(5.4 5)"/>
          <path class="cls-2" d="M127.1,66.8a18.47,18.47,0,0,0,2.7-1.7c0-.1-.1-.2-.1-.3l-2.3,1.3a26.29,26.29,0,0,1-3,1.2l-.3-.6c-.1-.2-.3-.5-.6-1a6.22,6.22,0,0,0,1.6-.4,8.8,8.8,0,0,0,1.7-.6,11.4,11.4,0,0,0,1.9-1l-.2-.1a12.43,12.43,0,0,1-1.8.6c-.4.1-1.1.3-2,.5l-.3-.6c-.1-.2-.3-.5-.7-1.1a8.79,8.79,0,0,0,2-.3,10.32,10.32,0,0,0,3.3-1.2h-3.6V59.8h9.2v1.7H131c.2.2.4.3.6.5-.6.3-1.1.6-1.6.9a4.55,4.55,0,0,1,.9.7l.3.4a21.17,21.17,0,0,0,2.1-1.5l.8-.7a1.76,1.76,0,0,1,.4.5q.15.15,1.2.9a14.51,14.51,0,0,1-1.9,1.2c.1.3.3.8.5,1.4a4.09,4.09,0,0,0,1.3,1.7,8,8,0,0,0,2.1,1.3,3.19,3.19,0,0,0-.6.7,5.34,5.34,0,0,0-.7,1,11.24,11.24,0,0,1-2.2-1.7,5.72,5.72,0,0,1-1.1-1.6,7.56,7.56,0,0,1-.8-2l-.6.3c0,.3.1.5.1.7v1.3a6.62,6.62,0,0,1-.1,1.5,3,3,0,0,1-.6,1.1,3.66,3.66,0,0,1-2.3.5c-.1-.7-.3-1.1-.3-1.3l-.3-.7a3.46,3.46,0,0,0,1.5,0c.2-.1.3-.4.4-.7a5.64,5.64,0,0,1,.1-.7V67a9.75,9.75,0,0,1-2.1,1.2,18.94,18.94,0,0,1-2.1,1l-2,.8a8.91,8.91,0,0,0-.5-1l-.5-.7A21.87,21.87,0,0,0,127.1,66.8Zm-4-6V57.2l1.7.1h4.1l-.8-.8.6-.3c.2-.1.5-.3,1.1-.6.7.6,1.2,1,1.5,1.3a1.38,1.38,0,0,0-.4.3h4.4l1.6-.1v3.7h-2v-2h-10v1.9h-1.8Z" transform="translate(5.4 5)"/>
          <path class="cls-2" d="M144.6,67.2a7.39,7.39,0,0,0,.5-1.9,19.27,19.27,0,0,0,.1-2.4V58l-.1-1.8,1.9.1h8.2l1.9-.1v4.6l-1.9-.1H147v2a23.64,23.64,0,0,1-.2,3,10.29,10.29,0,0,1-.5,2.2,5.91,5.91,0,0,1-1.5,2.1c-.4-.5-.6-.8-.7-.9l-.7-.6A3.66,3.66,0,0,0,144.6,67.2Zm2.5-8h8.3V57.9h-8.3Zm.2,3.1,1.9.1h2.5V60.9c.4.1,1,.1,2,.2a3.22,3.22,0,0,0-.1.8v.5h2.9l1.7-.1V64l-1.8-.1h-2.9l-.1,1h3.7v5.3h-1.9V70H150v.3h-1.9V65h3.4l.1-1h-2.4l-1.9.1V62.3Zm7.9,6.1V66.7H150v1.7Z" transform="translate(5.4 5)"/>
          <path class="cls-2" d="M164.4,57.7h2.4a5.82,5.82,0,0,0-.5-1.1l-.3-.5c.2,0,.3-.1.5-.1a4,4,0,0,0,1.1-.6,4.37,4.37,0,0,1,.6,1,5.44,5.44,0,0,1,.4.8l.1.2c-.2.1-.5.2-.7.3h2.1v.6l.3-.3a4.13,4.13,0,0,0,.4-.9c.2-.5.3-.9.4-1.2l.1-.4a1.42,1.42,0,0,0,.6.2c.2,0,.6.1,1.2.2a3.92,3.92,0,0,1-.4.9h4.7l1.6-.1v1.7l-1.4-.1h-5.5c-.4.7-.8,1.2-1,1.5h.8l-.1-1.1h1.8l-.1,1.1h2.1l-.1-1.2h1.8l-.1,1.2h1.4v1.6l-1.4-.1v4.4h.4l1.4-.1v1.7l-1.3-.1h-1q2,1.35,2.1,1.5l.3.3c-.2.3-.6.7-1.1,1.4l-.4-.4a10.77,10.77,0,0,0-1.1-.8c-.6-.4-1-.7-1-.7l-.4-.3c.4-.3.7-.5.7-.6l.3-.3H173c.2.2.3.3.4.3l1,.6a12.57,12.57,0,0,1-1.6,1.3c-.6.4-1.1.8-1.5,1-.1-.2-.2-.3-.3-.5a3.61,3.61,0,0,0-.9-.9,5.51,5.51,0,0,0,2.4-1.5l.4-.4h-1l-1.5.1V65.6l1.4.1V61.3h-1V60l-.4.5a4,4,0,0,0-1.2-1.1h-1.5v1.8h2.5v5.7a6.64,6.64,0,0,1-.1,1.3,1.9,1.9,0,0,1-.5,1.3,3.81,3.81,0,0,1-2,.8c0-.2-.1-.4-.1-.7a1.85,1.85,0,0,0-.2-.7l-.2-.5c.6,0,1-.1,1.1-.3a1.88,1.88,0,0,0,.2-.8,2.22,2.22,0,0,1,.1-.9V62.6h-.8V65a11.14,11.14,0,0,1-.2,1.7,5.49,5.49,0,0,1-.5,1.7,6.38,6.38,0,0,1-.8,1.4l-.3.4c-.2-.2-.4-.3-.5-.5a7.91,7.91,0,0,0-1.1-.8c.1-.1.3-.2.5-.4a2.89,2.89,0,0,0,.6-1,7.49,7.49,0,0,0,.5-1.6c.1-.6.1-1.7.2-3.3V59.3h-1.6V57.7Zm9.3,4.2h2.1v-.6h-2.1Zm2,1.4h-2.1v.6h2.1Zm0,1.8h-2.1v.7h2.1Z" transform="translate(5.4 5)"/>
          <path class="cls-2" d="M185.5,56.5l1.9.1h10.7l2-.1v2.1l-2-.1h-4.4V68l.1,2.4h-2.3l.1-2.4V58.6h-4.2l-1.9.1V56.5Zm13.6,8c-.8.8-1.4,1.3-1.7,1.6-.9-1.1-1.5-1.8-1.8-2.2a22.16,22.16,0,0,0-1.7-1.8,14.67,14.67,0,0,0,1.1-1l.4-.5C196.8,62,198.1,63.3,199.1,64.5Z" transform="translate(5.4 5)"/>
          <path class="cls-2" d="M206.7,63.5h6.4L213,65v3.7l.1,1.5h-1.9v-.3h-2.7v.3h-1.9l.1-1.5V63.5Zm4.7,4.7v-3h-2.7v3ZM209,57.7l-.1-1.4,1.4.1h6.4l1.4-.1v6l-1.4-.1h-6.2l-1.6.1.1-1.5V57.7Zm7.2,2.9V58H211v2.6ZM214,63.4h6.5l-.1,1.4v3.8l.1,1.5h-1.9v-.3h-2.7v.3H214V63.4Zm1.9,4.8h2.7V65.3h-2.7Z" transform="translate(5.4 5)"/>
          <path class="cls-2" d="M229.7,56.4v3.5h.8V55.8h1.9v4.1h.7v1.8h-3.3v1.2h2.7v7.7h-1.8v-6h-.8c0,.7-.1,1.4-.1,2a7.11,7.11,0,0,1-.4,2,3.47,3.47,0,0,1-.8,1.5l-.4.4c-.1-.2-.3-.5-.4-.7a3.53,3.53,0,0,0-.9-1l.5-.5a2.69,2.69,0,0,0,.5-1.3,15.15,15.15,0,0,0,.2-2.3V61.2c0-1.5,0-2.8-.1-3.9l-.1-.9A10.8,10.8,0,0,1,229.7,56.4Zm3.1,8.9h1.6c-.3-.2-.6-.5-.9-.7a1.42,1.42,0,0,1,.6-.2c.2-.1.4-.3.7-.5h-1.4V57h2.4c.1-.4.2-.7.2-.8l.1-.7a6.93,6.93,0,0,0,2,.3c-.1.4-.2.7-.3,1.1h3.6v6.9h-4.2c-.1.2-.3.4-.4.6a11.15,11.15,0,0,1-1,.9h1.5V64.1h1.9v1.2H242v1.8h-2.8v3.3h-1.9V67.1h-4.5Zm2.4-5.6h1.2v-1h-1.2Zm0,2.6h.9a3,3,0,0,0,.2-1h-1.1v1Zm4.4,0v-1h-1.5a3.54,3.54,0,0,1-.1.6l-.1.4Zm0-3.6h-1.3v1h1.4v-1Z" transform="translate(5.4 5)"/>
        </g>
      </g>
    </g>
    <path class="cls-3" d="M249,72a5.7,5.7,0,0,1-5.7,5.7H.3A5.7,5.7,0,0,1-5.4,72V.7A5.76,5.76,0,0,1,.3-5h243A5.7,5.7,0,0,1,249,.7Z" transform="translate(5.4 5)"/>
  </g>
</svg>
