<?xml version="1.0" encoding="utf-8"?>
<!-- Generator: Adobe Illustrator 21.1.0, SVG Export Plug-In . SVG Version: 6.00 Build 0)  -->
<svg version="1.1" id="图层_1" xmlns="http://www.w3.org/2000/svg" xmlns:xlink="http://www.w3.org/1999/xlink" x="0px" y="0px"
	 viewBox="0 0 336 62" style="enable-background:new 0 0 336 62;" xml:space="preserve">
<style type="text/css">
	.st0{fill:#CF9029;}
</style>
<path class="st0" d="M43.8,26.9l-4.2,2.7c-3.6-4.9-8.6-7.4-14.9-7.4c-5,0-9.2,1.7-12.5,5c-3.3,3.3-5,7.3-5,12.1c0,3.1,0.8,6,2.3,8.7
	c1.5,2.7,3.6,4.8,6.3,6.3c2.7,1.5,5.7,2.3,9,2.3c6.1,0,11-2.5,14.9-7.4l4.2,2.8c-2,3-4.6,5.4-8,7.1c-3.3,1.7-7.1,2.5-11.4,2.5
	c-6.5,0-12-2.1-16.3-6.4c-4.3-4.2-6.5-9.4-6.5-15.5c0-4.1,1-7.9,3-11.4c2-3.5,4.8-6.2,8.3-8.2c3.5-2,7.5-3,11.8-3
	c2.7,0,5.4,0.4,7.9,1.3c2.5,0.9,4.7,2,6.5,3.3C41.1,23,42.6,24.8,43.8,26.9"/>
<path class="st0" d="M72.9,22.3c-3,0-5.7,0.7-8.2,2.2c-2.5,1.5-4.5,3.6-6,6.3c-1.5,2.7-2.2,5.5-2.2,8.5c0,3,0.7,5.8,2.2,8.5
	c1.5,2.7,3.5,4.8,6,6.3c2.5,1.5,5.2,2.3,8.1,2.3c2.9,0,5.7-0.8,8.3-2.2c2.6-1.5,4.6-3.5,6-6.1c1.4-2.6,2.1-5.4,2.1-8.7
	c0-4.9-1.6-9-4.7-12.3C81.4,23.9,77.5,22.3,72.9,22.3 M94.1,18.1v42.3h-5.2v-7.3c-2.2,2.8-4.7,4.9-7.5,6.3c-2.8,1.4-5.8,2.1-9.1,2.1
	c-5.8,0-10.8-2.2-15-6.5c-4.1-4.3-6.2-9.6-6.2-15.8c0-6.1,2.1-11.3,6.3-15.6c4.2-4.3,9.2-6.5,15.1-6.5c3.4,0,6.5,0.7,9.2,2.2
	c2.7,1.5,5.2,3.7,7.2,6.6v-7.8H94.1z"/>
<path class="st0" d="M103,18.1h5.4v6.2c1.6-2.4,3.3-4.3,5.1-5.5c1.8-1.2,3.7-1.8,5.6-1.8c1.5,0,3,0.5,4.7,1.4l-2.8,4.6
	c-1.1-0.5-2-0.7-2.8-0.7c-1.8,0-3.5,0.7-5.1,2.2c-1.6,1.5-2.9,3.8-3.8,6.9c-0.7,2.4-1,7.3-1,14.6v14.3H103V18.1z"/>
<path class="st0" d="M147.2,22.3c-3,0-5.7,0.7-8.2,2.2c-2.5,1.5-4.5,3.6-6,6.3c-1.5,2.7-2.2,5.5-2.2,8.5c0,3,0.7,5.8,2.2,8.5
	c1.5,2.7,3.5,4.8,6,6.3c2.5,1.5,5.2,2.3,8.1,2.3c2.9,0,5.7-0.8,8.3-2.2c2.6-1.5,4.6-3.5,6-6.1c1.4-2.6,2.1-5.4,2.1-8.7
	c0-4.9-1.6-9-4.7-12.3C155.7,23.9,151.8,22.3,147.2,22.3 M168.5,18.1v42.3h-5.2v-7.3c-2.2,2.8-4.7,4.9-7.5,6.3
	c-2.8,1.4-5.8,2.1-9.1,2.1c-5.8,0-10.8-2.2-15-6.5c-4.1-4.3-6.2-9.6-6.2-15.8c0-6.1,2.1-11.3,6.3-15.6c4.2-4.3,9.2-6.5,15.1-6.5
	c3.4,0,6.5,0.7,9.2,2.2c2.7,1.5,5.2,3.7,7.2,6.6v-7.8H168.5z"/>
<path class="st0" d="M219.5,26.9l-4.2,2.7c-3.6-4.9-8.6-7.4-14.9-7.4c-5,0-9.2,1.7-12.5,5c-3.3,3.3-5,7.3-5,12.1
	c0,3.1,0.8,6,2.3,8.7c1.5,2.7,3.6,4.8,6.3,6.3c2.7,1.5,5.7,2.3,9,2.3c6.1,0,11-2.5,14.9-7.4l4.2,2.8c-2,3-4.6,5.4-8,7.1
	c-3.3,1.7-7.1,2.5-11.4,2.5c-6.5,0-12-2.1-16.3-6.4c-4.3-4.2-6.5-9.4-6.5-15.5c0-4.1,1-7.9,3-11.4c2-3.5,4.8-6.2,8.3-8.2
	c3.5-2,7.5-3,11.8-3c2.7,0,5.4,0.4,7.9,1.3c2.5,0.9,4.7,2,6.5,3.3C216.7,23,218.2,24.8,219.5,26.9"/>
<rect x="277.6" y="1.8" class="st0" width="5.3" height="58.6"/>
<path class="st0" d="M327.7,35c-0.7-2.9-1.7-5.2-3.1-7c-1.4-1.7-3.2-3.1-5.4-4.2c-2.2-1.1-4.6-1.6-7-1.6c-4.1,0-7.5,1.3-10.5,4
	c-2.1,1.9-3.7,4.9-4.8,8.7H327.7z M327.7,46.4l4.5,2.4c-1.5,3-3.2,5.3-5.1,7.1c-1.9,1.8-4.1,3.2-6.5,4.1c-2.4,0.9-5.1,1.4-8.2,1.4
	c-6.7,0-12-2.3-15.8-6.8c-3.8-4.5-5.7-9.6-5.7-15.3c0-5.4,1.6-10.1,4.8-14.3c4.1-5.3,9.5-8,16.4-8c7,0,12.7,2.7,16.9,8.2
	c3,3.9,4.5,8.7,4.6,14.5h-37.2c0.1,4.9,1.6,8.9,4.6,12.1c3,3.1,6.6,4.7,11,4.7c2.1,0,4.2-0.4,6.1-1.1c2-0.7,3.7-1.7,5.1-3
	C324.6,51.1,326.1,49.1,327.7,46.4"/>
<g>
	<path class="st0" d="M248,17.3c6.5,0,11.8,2.3,16.1,7c3.9,4.3,5.8,9.3,5.8,15.2c0,5.9-2,11-6.1,15.4c-4.1,4.4-9.3,6.6-15.8,6.6
		c-6.5,0-11.7-2.2-15.8-6.6c-4.1-4.4-6.1-9.5-6.1-15.4c0-5.8,1.9-10.9,5.8-15.1C236.1,19.6,241.5,17.3,248,17.3z M247.9,22.6
		c-4.5,0-8.4,1.7-11.6,5c-3.2,3.3-4.8,7.3-4.8,12.1c0,3,0.7,5.9,2.2,8.5c1.5,2.6,3.5,4.7,6,6.1c2.5,1.4,5.3,2.1,8.3,2.1
		c3,0,5.7-0.7,8.3-2.1c2.5-1.4,4.5-3.5,6-6.1c1.5-2.6,2.2-5.5,2.2-8.5c0-4.7-1.6-8.7-4.9-12.1C256.3,24.2,252.4,22.6,247.9,22.6z"/>
</g>
</svg>
