<?xml version="1.0" encoding="utf-8"?>
<!-- Generator: Adobe Illustrator 21.1.0, SVG Export Plug-In . SVG Version: 6.00 Build 0)  -->
<svg version="1.1" id="图层_1" xmlns="http://www.w3.org/2000/svg" xmlns:xlink="http://www.w3.org/1999/xlink" x="0px" y="0px"
	 viewBox="0 0 574.7 147.6" style="enable-background:new 0 0 574.7 147.6;" xml:space="preserve">
<style type="text/css">
	.st0{fill:#FFFFFF;}
</style>
<g>
	<path class="st0" d="M212.1,60h-32.9l0.1-2.8h33.2c0.1-0.3,0.7-11.1,0.7-11.1s5,1.2,12.3,3l-0.3,1.1l-2.9,0.8
		c-0.3,1.6-0.9,4.6-1.1,6.2h23.2c1.9-2.3,4.8-5.5,4.9-5.5c0.3,0.1,3.8,3.6,8,7.5l-0.7,0.7h-33.2c3.3,5,7.4,8.8,13.8,12
		c2,1,5.1,2.3,9.4,3.5c4.3,1.2,7.7,1.9,10.1,2l3.4,0.2l0.2,1.2c-0.1,0-2.5,0.9-3.3,1.3c-3.1,1.5-5.9,5.1-6.3,5.8
		c-0.2,0.2-0.3,0.4-0.4,0.7c-0.5-0.1-0.9-0.2-1.2-0.4c-1.4-0.6-2.9-1.2-4.3-1.6c-2.7-1.1-5.7-2.6-9-4.7c-3.5-2.2-5.9-4.1-7.2-5.7
		c-3.2-3.4-5.7-7.9-7.8-14.8c-1,3.8-2.2,6.4-3.5,9.2c-4.5,8.2-16.5,13.7-35.7,16.5c-1.5,0.2-4,0.5-5.3,0.8L176,85
		c0.1,0,0.1-0.1,0.2-0.1c1.3-0.3,3.5-0.9,4.8-1.1c5.3-1.4,9.7-2.8,13.1-4.3c3.2-1.5,6.4-3.6,9.6-6.2C208.2,69.3,211.3,64.9,212.1,60
		 M248.4,33.3h-23.3v-2.8h12l5.1-5.7c0,0,7.2,6.7,8.2,7.7l-0.7,0.8H248.4z M222.5,21.8v1.5v19v1.1h23.9c0,0,5.2-6,5.4-6l7.2,6.5
		c0,0,1.4,1.3,1.4,1.4l-0.6,0.8c-0.1,0-83.2,0-83.2,0v-2.7h37.2V33.3h-28l-0.1-2.8h28.1V20.4h-35.2v-2.8h45
		c2.3-6.4,5.2-15.2,5.4-15.7c0.3,0.1,0.3,0,0.6,0.2L239.9,7l-0.6,0.8h-1.7l-9.9,9.9h17c3-3.9,4.7-6.1,5.1-6.4
		c0.3,0.1,0.6,0.3,0.9,0.7l8,7.6l-0.6,0.8h-34.3L222.5,21.8z M202.8,13.4c0.1,0.8,0.4,1.6,1.1,2.4c0.6,0.7,1.7,1.1,3.2,1.2
		c3.3,0,4.9-1.5,5-4.6c0-2.4-1.1-4.4-3.3-5.9c-1-0.7-3-1.7-5.8-2.9c-2.7-0.7-4.2-1.2-4.7-1.2l-0.8,0.9c0.2,0.2,0.4,0.3,0.7,0.6
		c2.1,1.5,3.5,3.8,4.2,7.1C202.5,11.8,202.6,12.6,202.8,13.4"/>
	<path class="st0" d="M568.6,72.9l0.3,1.3c-0.9,0.1-2,0.5-2.7,0.7c-1.5,0.4-2.7,1-3.7,1.8c-0.6,0.4-1.7,1.6-3.4,3.4
		c-0.2,0.3-0.4,0.5-0.6,0.5c-0.3-0.1-1.1-0.4-2.2-1c-7.1-4.1-12.1-9.4-15-16.1c-1.4-2.8-2.4-6.1-2.9-9.8c-0.3-1.2-0.4-2.4-0.5-3.7
		c-2,0.7-4,1.5-5.9,2.3c1.3,3.2,2.1,6.2,2.5,9c0.4,2.3,0.6,4.6,0.6,6.9c-0.1,7.4-2.2,12.6-6.3,15.6c-2.9,2.2-5.8,3.3-8.5,3.3
		c-0.7-0.1-1.3-0.9-1.9-2.6c-1-2.7-2.5-4.4-4.5-5.1l-4.7-1.1l0.6-2.1c0.8,0,2.5,0.3,5,0.9c1.1,0.2,2.2,0.3,3.3,0.3
		c4.8,0,7.5-2.1,8.1-6.2c0.3-1.9,0.5-4.6,0.5-7.9c-0.1-1.8-0.2-3.9-0.4-6.3c-6,4.9-11.8,9-17.3,12.4c-2.9,1.7-6.1,3.5-9.7,5.2
		c-3.5,1.8-6.3,3.1-8.4,3.9c-1.4,0.4-2.7,0.9-4.1,1.5c-0.2,0.1-0.4,0.2-0.6,0.2c-0.3,0.1-0.6,0.2-0.9,0.2l-0.5-1.4
		c0.3-0.2,0.7-0.5,1.4-0.8c1.3-0.8,2.7-1.5,4.1-2.1c3.7-2.1,7.5-4.4,11.2-6.9c4.1-2.9,7.5-5.4,10.1-7.7c4.4-3.8,8.5-8.2,12.1-13
		c-0.4-0.8-0.7-1.6-1-2.3c-2.8,2.2-5.5,4.2-7.9,5.9s-4.8,3.3-7.3,4.7c-4.6,2.7-10.2,5.5-16.9,8.4l-3.7,1.7c-0.4,0.1-0.8,0.2-1.1,0.3
		l-0.6-1.6l4.7-2.6c6.9-3.7,13.4-8.4,19.5-14c0.9-0.8,1.7-1.5,2.4-2.1c2.6-2.4,4.7-4.7,6.2-6.9c-0.4-0.4-0.9-0.8-1.2-1
		c-3.8,2.2-7.3,4.1-10.5,5.7c-3,1.5-7.4,3.3-13,5.6c-3,0.9-4.7,1.4-5.3,1.5l-0.4-1.1c1.8-1.1,3.5-1.9,5.1-2.6
		c9.7-5.1,16.7-10.1,22-16.4h-19.1V29h44.1c1-1.2,4.4-4.8,4.6-4.8c0.3,0,7.7,6.2,7.9,6.5l-0.8,1h-23.8c0.3,0.3,1,1.5,1,1.5l-0.6,0.3
		c0,0-1.6,0-2.5,0c-2.6,1.6-4.3,2.5-6.8,4.2c5.2,4.1,9.3,8.5,12.2,13.1c2.6-1.9,5-3.8,7.2-5.7c2.4-2.3,4.8-4.5,7.1-6.6
		c0.7-0.9,1.4-1.7,2.2-2.3c0.3-0.4,0.6-0.7,0.8-0.7c0.4,0.3,7.9,7.2,7.9,7.4l-0.5,0.5l-2-0.3c-5.3,2.6-10.8,5.1-14.4,6.6
		c1.4,4,4,8.1,8,12.3c4.7,4.6,9.8,7.8,15.3,9.5L568.6,72.9z M500,15.8h53.6c0.6-0.7,3.5-3.4,3.5-3.4l11.3,9.4l-0.8,1.1
		c-3.4-0.4-7.2,0.6-9.6,1.3c-1,0.5-2.2,1.1-3.5,2.1c-0.6,0.4-2,2.2-2,2.2l-1.5-0.9c0,0,0.2-0.5,0.4-1c1.2-3.8,1.8-6,1.9-6.4
		c0.5-1.6,0.4-1.1,0.4-1.4L500,18.6V15.8z M497.2,20.9c-0.1,2.8-0.9,5.2-2.5,7.1c-1.5,1.5-3.2,2.2-4.9,2.2c-2.3-0.1-4-0.9-4.9-2.6
		c-0.4-0.6-0.6-1.3-0.6-2.1c0.1-1.1,0.4-2.1,1-3c0.2-0.5,0.5-0.8,0.9-0.9c0.7-0.6,1.7-1.5,3-2.6c2.2-1.8,3.5-3.7,3.8-5.8
		c0,0,0.3-2.4,0.4-2.6l1-0.6c0.4,0.5,0.9,1.5,1.5,3.1C497,16.3,497.2,20,497.2,20.9 M515.9,1.7l0.2-0.7c0.1,0,1.1,0.1,1.3,0.1
		c0.2,0.1,1.1,0.2,2.6,0.5c1.6,0.4,3,0.8,4.1,1.2c2,0.7,3.7,1.9,5.3,3.5c0.9,1.1,1.3,2.4,1.3,3.9c-0.1,3.5-1.9,5.3-5.6,5.3
		c-2.1-0.1-3.6-0.9-4.4-2.6c-0.3-0.5-0.5-1.7-0.5-3.3c-0.3-2.3-0.9-3.9-1.6-5C518.7,4.5,517.3,2.6,515.9,1.7"/>
	<path class="st0" d="M291.8,54.8c0,0-7.8,1.1-7.8,0.9v-9.4V34.5v-8l9,3.8h13V19.7h-33.3v-2.5H306V2.9l12.5,2.8l-0.3,0.8L315,7.7
		v9.5h22.6l6.5-7.4c0,0,10.4,8.6,10.5,8.8l-1,1.1h-1.7H315v10.6h14.8c0.9-1.2,1.7-2.3,2.6-3.3c0.5-0.6,0.8-1.2,0.8-1.2
		s1.1,0.7,1.3,0.9l8.6,5.8l-0.4,0.9l-3.6,1.3v20.6h-8.6V52h-4.1c-0.3,0.3-0.5,0.5-0.5,0.6c-0.7,0.8-1.5,1.6-2.3,2.2V74
		c0.1,1.5,0.3,2.4,0.6,2.6c1.2,0.7,4.5,1,9.8,1c5.2,0,8.6-0.5,10.1-1.4c1.6-0.9,3.3-3.3,5.2-7.3c0.8-2.1,1.7-4.1,2.7-6.1l1.6,0.4
		c-0.5,2.4-1,4.9-1.3,7.2c-0.2,1.4-0.2,2.5,0,3.3c0,0.3,0.5,1.3,1.5,3.2c0.6,0.9,0.8,1.7,0.8,2.5c-0.1,1.5-1.2,2.7-3.3,3.6
		c-1.8,0.7-3.5,1.2-5.2,1.5c-3.2,0.4-6.7,0.7-10.8,0.7c-5.3,0-9.5-0.3-12.6-0.8c-3.4-0.7-5.5-1.8-6.4-3.1c-0.6-1-1-2.7-1-5.1V52
		h-16.9l10.4,3.9l-0.3,0.7l-2.9,1.4c-1.4,5.3-3.3,10.1-4.7,12.7c-1.5,2.5-3.8,4.8-6.8,6.9c-4.8,3.3-11.4,5.8-19.7,7.5
		c0,0-2.5,0.4-4.7,0.6l-0.2-1.2c0.1-0.1,0.5-0.2,0.7-0.2c1.4-0.6,2.9-1.1,4.2-1.5c9.1-3.2,15-7.4,17.9-12.6c2.6-4.5,4.3-10.5,5.1-18
		h-2.9v-2.8h36V32.8h-38.8"/>
	<path class="st0" d="M427.6,60h-32.9l0.1-2.8H428c0.1-0.3,0.7-11.1,0.7-11.1s5,1.2,12.3,3l-0.4,1.1l-2.9,0.8
		c-0.3,1.6-0.9,4.6-1.1,6.2h23.3c1.9-2.3,4.9-5.5,4.9-5.5c0.2,0.1,3.7,3.6,8,7.5L472,60h-33.2c3.3,5,7.4,8.8,13.8,12
		c2,1,5.1,2.3,9.4,3.5s7.7,1.9,10.1,2l3.4,0.2l0.2,1.2c-0.1,0-2.5,0.9-3.3,1.3c-3.1,1.5-5.9,5.1-6.3,5.8c-0.2,0.2-0.3,0.4-0.4,0.7
		c-0.4-0.1-0.9-0.2-1.2-0.4c-1.5-0.6-2.9-1.2-4.3-1.6c-2.8-1.1-5.7-2.6-9-4.7c-3.5-2.2-5.9-4.1-7.2-5.7c-3.2-3.4-5.7-7.9-7.8-14.8
		c-1,3.8-2.2,6.4-3.5,9.2c-4.5,8.2-16.5,13.7-35.7,16.5c-1.5,0.2-4,0.5-5.4,0.8l-0.3-1.2c0.1,0,0.1-0.1,0.2-0.1
		c1.3-0.3,3.5-0.9,4.8-1.1c5.3-1.4,9.7-2.8,13.1-4.3c3.1-1.5,6.4-3.6,9.6-6.2C423.7,69.3,426.8,64.9,427.6,60 M463.9,33.3h-23.3
		v-2.8h12l5.1-5.7c0,0,7.2,6.7,8.2,7.7l-0.7,0.8H463.9z M437.9,21.8v1.5v19v1.1h23.9c0,0,5.2-6,5.4-6l7.2,6.5c0,0,1.4,1.3,1.4,1.4
		l-0.6,0.8c-0.1,0-83.2,0-83.2,0v-2.7h37.2V33.3h-28l-0.1-2.8h28.1V20.4H394v-2.8h44.9c2.3-6.4,5.2-15.2,5.4-15.7
		c0.2,0.1,0.4,0,0.6,0.2L455.4,7l-0.6,0.8h-1.7l-9.9,9.9h17c3-3.9,4.7-6.1,5.1-6.4c0.3,0.1,0.6,0.3,0.8,0.7l8,7.6l-0.6,0.8h-34.3
		L437.9,21.8z M418.3,13.4c0,0.8,0.4,1.6,1.1,2.4c0.7,0.7,1.7,1.1,3.2,1.2c3.3,0,4.9-1.5,5-4.6c0-2.4-1.1-4.4-3.3-5.9
		c-1-0.7-3-1.7-5.9-2.9c-2.6-0.7-4.2-1.2-4.7-1.2l-0.8,0.9c0.2,0.2,0.4,0.3,0.7,0.6c2.1,1.5,3.5,3.8,4.3,7.1
		C418,11.8,418.1,12.6,418.3,13.4"/>
	<path class="st0" d="M365.6,43.4c0-3.1,2.6-5.6,5.7-5.6s5.7,2.5,5.7,5.6s-2.6,5.6-5.7,5.6S365.6,46.5,365.6,43.4"/>
	<path class="st0" d="M7.6,109.3c6.3-9.3,12.7-17.8,19-25.3c2.5-3,4.9-5.8,7.2-8.2v33.1l-14.5,21.8H7.6V109.3z M7.6,62.9
		C8.4,62.3,9.2,62,9.7,62c0.7,0,2.2,0,2.2,3c0,2.1-1.5,5.5-4.3,10.5C7.6,75.5,7.6,62.9,7.6,62.9z M7.6,9h46.9
		c2.5,7.2,20.2,58,21,60.3l0.2,0.6c-2.1,1.7-4.3,3.6-6.6,5.6l0,0c0-5.1-1.4-9.4-4.3-12.8c-2.9-3.5-6.6-5.2-11.2-5.2
		c-3.1,0-6.5,0.7-10.2,2.2l-9.8-29.1v34.3c-3.2,2.1-6.6,4.7-10,7.6c-0.1-3.9-1.4-7.3-3.7-10.1c-2.5-3.2-5.8-4.9-9.5-4.9
		c-1,0-2,0.1-2.9,0.4V9H7.6z M102.3,62c3.4,0,4.9,1.4,4.9,4.6c0,2.2-2.1,7.7-12.3,21.5c-6.3,8.6-10.2,14-10.9,15.2
		c-3.9,6.4-5.9,12.2-5.9,17.8c0,3.6,0.7,6.8,2.1,9.5h-13c-0.8-2.3-3-9-5.9-17.8l-2.9-8.8c1.7-2.3,3.3-4.6,4.9-6.7l7.9-10
		c0.3-0.4,0.5-0.7,0.8-1.1c0.2-0.3,0.4-0.6,0.6-0.8C85.4,69.9,95.4,62,102.3,62 M98.7,9h46.9v87.2c-6.3,7.7-19.9,24.3-26.5,32.2
		V30.2l-9.3,29.1c-2.2-1.2-4.6-1.8-7.2-1.8c-0.5,0-1,0-1.4,0.1C94.6,58,86.9,61.5,78.3,68C81.1,59.7,96.4,15.6,98.7,9 M145.6,130.6
		h-19l19-26.6V130.6z M115.5,64.8c-0.4-0.5-0.8-1.1-1.2-1.6c-0.4-0.5-0.9-1-1.3-1.4c0.9-2.9,1.8-5.6,2.5-7.9V64.8z M50.8,81.5
		l-5.5-16.4c2.9-2.1,5.3-3.1,7.2-3.1c2,0,4.3,0.6,4.3,5.2C56.8,68.9,55.7,72.7,50.8,81.5 M37.4,62.7v-9.4c0.7,2.2,1.6,4.8,2.5,7.6
		l0.1,0.4C39.2,61.7,38.3,62.2,37.4,62.7 M37.4,103.3V71.9c1.7-1.7,3.3-3.1,4.8-4.4l6.1,18.3C45.4,90.8,41.8,96.6,37.4,103.3
		 M38.3,134.2l0.3-0.5c6-9.5,11.8-18.2,17.1-25.9l8.9,26.4H93l-0.9-1.7c-0.3-0.5-0.4-1-0.4-1.7c0-3.2,2.3-8.3,6.8-15
		c7.8-11.6,11.3-16.6,11.8-17.3l0.1-0.1c2.2-3.2,4-6,5.3-8.4v44.2h33.8V5.4H96.1l-0.3,0.8c0,0-14.7,42.6-19.1,55.2
		C72.3,48.8,57.4,6.2,57.4,6.2l-0.3-0.8H3.9v128.8H38.3z"/>
	<g>
		<path class="st0" d="M175.2,106.5v-1.3c1.4,0,2.8,0.1,4.1,0.1s2.6,0,3.8-0.1c1.2,2.7,2.3,5.1,3.3,7.2l7.8,16l7-14.7
			c1.9-4,3.2-6.8,3.8-8.5c1.4,0,2.7,0.1,3.7,0.1c0.9,0,2.4,0,4.5-0.1v1.3c-1.6,0-2.6,0.1-3,0.2c-0.3,0.1-0.6,0.3-0.7,0.5
			c-0.2,0.2-0.3,0.9-0.3,2c0,0.3-0.1,2.2-0.1,5.8v9.5c0,1.9,0,3.7,0.1,5.4c0,1.3,0.1,2.1,0.3,2.3s0.4,0.4,0.8,0.5
			c0.4,0.1,1.4,0.2,3,0.2v1.3c-2.7-0.1-4.7-0.2-5.8-0.2c-0.9,0-2.9,0.1-6.1,0.2V133c1.6,0,2.6-0.1,3-0.2c0.4-0.1,0.6-0.3,0.7-0.5
			c0.2-0.3,0.3-0.9,0.3-2c0-0.3,0.1-2.2,0.1-5.8v-15.1l-7.1,14.8c-1.1,2.3-2,4.2-2.6,5.6c-0.5,1-1.1,2.7-2.1,4.9h-0.8
			c-0.2-0.5-0.3-0.9-0.5-1.2l-1.4-3l-9.8-20.4v14.4c0,1.9,0,3.7,0.1,5.4c0,1.3,0.1,2.1,0.3,2.3s0.4,0.4,0.8,0.5
			c0.4,0.1,1.4,0.2,3,0.2v1.3l-4.9-0.2l-5.1,0.2V133c1.6,0,2.6-0.1,3-0.2c0.4-0.1,0.6-0.3,0.7-0.5c0.2-0.3,0.3-0.9,0.3-2
			c0-0.3,0-2.2,0.1-5.8V115c0-1.9,0-3.7-0.1-5.5c-0.1-1.3-0.2-2.1-0.3-2.3c-0.1-0.2-0.4-0.4-0.8-0.5
			C177.8,106.6,176.8,106.5,175.2,106.5"/>
		<path class="st0" d="M229.5,123.5c-1.8,0.3-3.3,0.6-4.6,1c-1.2,0.4-2.1,0.7-2.7,1.1c-0.3,0.2-0.6,0.6-0.8,1.1
			c-0.4,0.7-0.5,1.5-0.5,2.3c0,1,0.3,1.8,0.9,2.4c0.6,0.6,1.3,0.8,2.3,0.8c0.9,0,1.8-0.2,2.7-0.8c0.9-0.5,1.8-1.3,2.7-2.4
			 M220,120.3l-1.1-0.3c0-0.3,0-0.7,0-1.3c0-0.6,0-1,0-1.4c1.8-1.1,3.2-1.9,4.3-2.3c0.8-0.3,1.8-0.4,2.8-0.4c1.6,0,2.9,0.3,3.9,0.9
			c1.1,0.6,1.9,1.4,2.4,2.5c0.4,0.8,0.5,1.8,0.5,3.1l-0.1,3.8v6.1c0,0.6,0.1,1.1,0.2,1.4c0.1,0.2,0.2,0.4,0.4,0.5
			c0.1,0.1,0.4,0.1,0.8,0.2l1.4,0.1v1.2c-1.1-0.1-2.1-0.2-3-0.2c-0.8,0-1.9,0-3.3,0.2l0.1-3.6c-2.8,2.1-4.5,3.3-5,3.6
			s-1.2,0.4-2,0.4c-1.6,0-2.9-0.4-3.9-1.3c-0.9-0.9-1.4-2.1-1.4-3.5c0-0.9,0.2-1.8,0.5-2.6c0.3-0.8,0.7-1.4,1.2-1.9s0.9-0.8,1.4-1
			c0.8-0.4,2.1-0.8,3.9-1.2c1.8-0.4,3.6-0.7,5.3-0.9c0-1.3-0.1-2.3-0.5-3c-0.3-0.7-0.9-1.3-1.7-1.8s-1.7-0.7-2.8-0.7
			c-0.8,0-1.5,0.1-2.1,0.3c-0.6,0.2-1,0.4-1.1,0.6l-0.4,0.7C220.5,119.1,220.2,119.8,220,120.3z"/>
		<path class="st0" d="M239,134.3v-1.2c1.5,0,2.4,0,2.5-0.1c0.2,0,0.4-0.1,0.5-0.2c0.1-0.1,0.2-0.2,0.3-0.4c0.1-0.3,0.2-0.8,0.2-1.5
			c0.1-3.7,0.1-5.6,0.1-5.7v-2.4c0-1.1,0-2.3-0.1-3.5c0-0.8-0.1-1.3-0.2-1.4c-0.1-0.2-0.3-0.3-0.5-0.3c-0.2-0.1-1.1-0.1-2.7-0.1
			v-1.2c2.8-0.4,4.8-0.9,6.1-1.5c0.3-0.1,0.5-0.2,0.6-0.2s0.2,0.1,0.2,0.1c0.1,0.1,0.1,0.2,0.1,0.3c0,0.1,0,0.2,0,0.4
			c-0.1,0.8-0.1,2.1-0.1,3.9c0.6-0.7,1.2-1.4,1.7-2.1s0.9-1.1,1.1-1.3c0.4-0.4,0.9-0.6,1.4-0.8c0.5-0.2,1.1-0.3,1.6-0.3
			c0.6,0,1.2,0.1,1.7,0.4l0.1,0.3c-0.2,1.8-0.3,3.4-0.4,4.8h-0.9c-0.3-0.7-0.7-1.1-1.1-1.5c-0.4-0.3-0.9-0.5-1.6-0.5
			c-1.1,0-2,0.4-2.7,1.3c-0.7,0.8-1.1,2.1-1.1,3.9v2.1c0,0.9,0,2.5,0.1,5c0,0.8,0,1.4,0.1,1.6c0.1,0.2,0.1,0.4,0.2,0.5
			c0.1,0.1,0.3,0.2,0.4,0.2c0.4,0.1,1.5,0.3,3.3,0.4v1.2c-2.4-0.1-4.5-0.2-6.1-0.2C242.3,134.2,240.6,134.2,239,134.3"/>
		<path class="st0" d="M255.5,134.3v-1.2h1.9c0.3,0,0.5-0.1,0.7-0.2c0.2-0.1,0.3-0.2,0.4-0.3c0.2-0.3,0.3-0.8,0.3-1.5
			c0-0.2,0.1-2.1,0.1-5.9v-8.5c0-2.3,0-4.6-0.1-7.1c-0.1-1.6-0.1-2.5-0.2-2.7c-0.1-0.1-0.2-0.2-0.3-0.3c-0.2-0.1-1.2-0.2-2.8-0.2
			v-1.2c3.1-0.4,5.2-0.9,6.5-1.5c0.2-0.1,0.3-0.1,0.4-0.1s0.2,0,0.2,0.1s0.1,0.2,0.1,0.3c0,0.1,0,0.2-0.1,0.4v0.7
			c-0.1,2.4-0.1,4.5-0.1,6.3v3.2v8.2l0.2,0.1c0.7-0.5,1.8-1.3,3.1-2.4c0.9-0.8,3-2.7,6.2-5.7c1,0,1.7,0.1,2,0.1s0.9,0,2.1-0.1v1.1
			c-0.8,0.1-1.3,0.1-1.5,0.2c-0.3,0.1-0.8,0.4-1.7,0.9c-1.3,0.8-2.9,2-4.7,3.6l-2.1,1.7c1.1,1.2,3,3.1,5.7,5.7
			c2.1,2.1,3.3,3.3,3.7,3.7c0.4,0.3,0.8,0.6,1.2,0.6c0.4,0.1,1,0.1,1.8,0.1v0.9c-1,0.2-1.9,0.4-2.6,0.5s-1.5,0.3-2.4,0.6
			c-0.5-0.4-0.9-0.8-1.4-1.2c-0.4-0.4-1.3-1.3-2.7-2.7c-2.8-2.8-5.1-5-6.9-6.7l-0.2,0.1v1.2c0.1,3.6,0.1,5.5,0.1,5.8
			c0,0.7,0.1,1.2,0.3,1.5c0.1,0.1,0.1,0.2,0.2,0.3s0.3,0.1,0.5,0.2c0.1,0,0.9,0,2.3,0.1v1.2c-1.8-0.1-3.4-0.2-4.9-0.2
			C259.3,134.2,257.6,134.2,255.5,134.3"/>
		<path class="st0" d="M284.3,123.4c0,1.7,0.3,3.4,0.8,5.1c0.6,1.7,1.4,3,2.4,3.8c1.1,0.8,2.2,1.2,3.5,1.2c1.6,0,2.9-0.6,4-1.9
			c1.1-1.3,1.6-3.2,1.6-5.8c0-2.2-0.3-4.1-1-5.6c-0.6-1.6-1.5-2.7-2.4-3.4c-1-0.7-2.1-1-3.3-1c-1.7,0-3,0.6-4.1,1.8
			C284.8,118.9,284.3,120.8,284.3,123.4 M280.5,124.9c0-3.1,0.9-5.6,2.9-7.5c2-2,4.5-2.9,7.5-2.9c2.9,0,5.2,0.9,7,2.7
			c1.8,1.8,2.7,4.2,2.7,7c0,2-0.5,3.8-1.4,5.5s-2.2,3-3.9,3.9c-1.7,0.9-3.6,1.4-5.6,1.4c-1.6,0-2.9-0.3-4-0.8s-2-1.2-2.7-2
			s-1.2-1.6-1.5-2.5C280.7,128.2,280.5,126.6,280.5,124.9z"/>
		<path class="st0" d="M304.4,134.3v-1.2c1.6,0,2.4,0,2.5-0.1c0.2,0,0.4-0.1,0.5-0.2c0.1-0.1,0.2-0.2,0.3-0.4
			c0.1-0.3,0.2-0.8,0.3-1.5c0.1-3.7,0.1-5.6,0.1-5.7v-2.4c0-1.1,0-2.3-0.1-3.5c0-0.8-0.1-1.3-0.2-1.4c-0.1-0.2-0.2-0.3-0.5-0.3
			c-0.2-0.1-1.1-0.1-2.7-0.1v-1.2c2.8-0.4,4.8-0.9,6.1-1.5c0.3-0.1,0.4-0.2,0.5-0.2s0.2,0.1,0.2,0.1c0.1,0.1,0.1,0.2,0.1,0.3
			c0,0.1,0,0.2,0,0.4c-0.1,0.8-0.1,2.1-0.1,3.9c0.6-0.7,1.2-1.4,1.7-2.1s0.9-1.1,1.1-1.3c0.4-0.4,0.9-0.6,1.4-0.8
			c0.5-0.2,1-0.3,1.6-0.3s1.1,0.1,1.7,0.4l0.1,0.3c-0.2,1.8-0.3,3.4-0.3,4.8h-0.9c-0.3-0.7-0.7-1.1-1.1-1.5
			c-0.4-0.3-0.9-0.5-1.6-0.5c-1.1,0-1.9,0.4-2.7,1.3c-0.7,0.8-1.1,2.1-1.1,3.9v2.1c0,0.9,0,2.5,0.1,5c0,0.8,0,1.4,0.1,1.6
			c0.1,0.2,0.1,0.4,0.2,0.5s0.2,0.2,0.5,0.2c0.4,0.1,1.5,0.3,3.3,0.4v1.2c-2.4-0.1-4.5-0.2-6.2-0.2
			C307.7,134.2,306,134.2,304.4,134.3"/>
		<path class="st0" d="M338.5,106.5v-1.3c2.1,0.1,3.8,0.1,5.3,0.1c1,0,2.9,0,5.5-0.1c2.7,0,4.5-0.1,5.4-0.1c1,0,1.9,0,2.7,0.1
			c0.8,0,1.6,0,2.2,0.1c-0.3,1.1-0.6,3.2-0.6,6.2h-1.3c-0.1-1.6-0.3-2.9-0.5-3.8c-0.7-0.3-1.6-0.4-2.7-0.5c-1-0.1-2.3-0.2-3.6-0.2
			c-1.4,0-2.8,0.1-4.3,0.2c-0.1,0.7-0.1,1.4-0.2,2.1c0,0.4,0,2-0.1,4.7v4.6c1.5,0.1,2.9,0.1,4,0.1c1.7,0,3.1-0.1,4.2-0.3
			c0.4,0,0.7-0.2,0.8-0.3c0.1-0.2,0.2-0.7,0.4-1.7l0.2-1.3h1.3l-0.2,4.7l0.2,5h-1.3l-0.1-1.3c-0.2-1.5-0.2-2.3-0.3-2.4
			c-0.1-0.2-0.4-0.4-0.8-0.4c-0.8-0.2-2.5-0.3-5.3-0.3c-1,0-2,0-3,0.1v4.1c0,1.9,0,3.7,0.1,5.4c0,1.3,0.1,2.1,0.3,2.3
			c0.1,0.2,0.4,0.4,0.8,0.5s1.3,0.2,3,0.2v1.3c-1.7-0.1-3.5-0.2-5.2-0.2c-1.5,0-3.8,0-6.7,0.2V133c1.6,0,2.6-0.1,3-0.2
			c0.3-0.1,0.6-0.3,0.7-0.5c0.2-0.3,0.3-0.9,0.3-2c0-0.3,0-2.2,0.1-5.8V115c0-1.9,0-3.7-0.1-5.5c0-1.3-0.1-2.1-0.3-2.3
			c-0.2-0.2-0.4-0.4-0.7-0.5C341.1,106.6,340.1,106.5,338.5,106.5"/>
		<path class="st0" d="M386.7,133.1v1.2c-1.8-0.1-3.2-0.2-4.1-0.2c-1,0-2,0-3.1,0.2c0.1-1.1,0.1-2.3,0.2-3.7
			c-0.8,0.7-1.8,1.6-2.9,2.7c-0.3,0.3-0.5,0.5-0.8,0.6c-0.6,0.3-1.2,0.6-1.8,0.7c-0.6,0.1-1.3,0.2-2.1,0.2c-1.1,0-2-0.2-2.8-0.5
			c-0.7-0.3-1.4-0.7-1.9-1.4c-0.4-0.5-0.7-1-0.9-1.8c-0.2-0.7-0.3-1.6-0.3-2.6c0-0.5,0-0.9,0-1.3c0.1-0.5,0.1-0.9,0.1-1.3v-3.5
			c0-0.4,0-1.2-0.1-2.7c0-0.9-0.1-1.5-0.2-1.7c-0.1-0.1-0.1-0.3-0.3-0.3c-0.2-0.1-0.6-0.2-1.1-0.2c-0.8,0-1.3,0-1.8,0v-1.2
			c2.9-0.3,5.1-0.9,6.4-1.6c0.2-0.1,0.4-0.2,0.5-0.2s0.2,0,0.2,0.1c0.1,0.1,0.1,0.2,0.1,0.3c0,0.1,0,0.2,0,0.4
			c-0.1,0.4-0.1,1.3-0.1,2.5c-0.1,2.3-0.1,3.8-0.1,4.6v4c0,1.7,0.1,2.8,0.3,3.5c0.2,0.7,0.7,1.2,1.3,1.6c0.7,0.4,1.5,0.6,2.4,0.6
			c0.7,0,1.3-0.1,2-0.3c0.6-0.3,1.2-0.6,1.7-1c0.4-0.3,0.8-0.7,1.2-1.3c0.3-0.4,0.5-0.7,0.6-0.9s0.2-0.5,0.2-0.9
			c0.1-1.2,0.1-2.4,0.1-3.6v-1.7c0-0.4,0-1.2-0.1-2.7c0-0.9-0.1-1.5-0.2-1.7c0-0.1-0.1-0.3-0.3-0.3c-0.2-0.1-0.6-0.2-1.1-0.2
			c-0.8,0-1.3,0-1.8,0v-1.2c2.9-0.3,5.1-0.9,6.4-1.6c0.2-0.1,0.4-0.2,0.5-0.2s0.2,0,0.2,0.1c0.1,0.1,0.1,0.2,0.1,0.3
			c0,0.1,0,0.2,0,0.4c0,0.4-0.1,1.3-0.2,2.6c-0.1,2.2-0.1,3.7-0.1,4.5v2.8v2.9c0.1,1.6,0.1,2.6,0.1,2.9c0,0.7,0.1,1.2,0.2,1.5
			c0.1,0.1,0.1,0.2,0.2,0.3s0.3,0.1,0.5,0.2C384.5,133.1,385.2,133.1,386.7,133.1"/>
		<path class="st0" d="M390.1,134.3v-1.2c1.6,0,2.4,0,2.5-0.1c0.2,0,0.4-0.1,0.5-0.2c0.1-0.1,0.2-0.2,0.3-0.4
			c0.1-0.3,0.2-0.8,0.2-1.5c0.1-3.7,0.1-5.6,0.1-5.7v-2.4c0-1.1,0-2.3-0.1-3.5c0-0.8-0.1-1.3-0.2-1.4c-0.1-0.2-0.2-0.3-0.5-0.3
			c-0.2-0.1-1.1-0.1-2.7-0.1v-1.2c2.8-0.4,4.8-0.9,6.1-1.5c0.3-0.1,0.4-0.2,0.5-0.2s0.2,0.1,0.3,0.1c0.1,0.1,0.1,0.2,0.1,0.3
			c0,0.1,0,0.2,0,0.4c-0.1,0.8-0.1,2.1-0.1,3.9c0.6-0.7,1.2-1.4,1.7-2.1s0.9-1.1,1.1-1.3c0.4-0.4,0.9-0.6,1.4-0.8
			c0.5-0.2,1.1-0.3,1.6-0.3c0.6,0,1.1,0.1,1.7,0.4l0.1,0.3c-0.2,1.8-0.3,3.4-0.3,4.8h-0.9c-0.3-0.7-0.7-1.1-1.1-1.5
			c-0.4-0.3-0.9-0.5-1.5-0.5c-1.1,0-2,0.4-2.7,1.3c-0.7,0.8-1.1,2.1-1.1,3.9v2.1c0,0.9,0,2.5,0.1,5c0,0.8,0.1,1.4,0.1,1.6
			c0.1,0.2,0.1,0.4,0.2,0.5s0.2,0.2,0.5,0.2c0.4,0.1,1.5,0.3,3.3,0.4v1.2c-2.4-0.1-4.4-0.2-6.2-0.2
			C393.5,134.2,391.8,134.2,390.1,134.3"/>
		<path class="st0" d="M405.2,134.3v-1.2h2c0.3,0,0.5-0.1,0.6-0.2c0.2-0.1,0.3-0.2,0.4-0.3c0.1-0.3,0.2-0.8,0.3-1.5
			c0-0.2,0-2.1,0.1-5.9v-2.4c0-1.1,0-2.3-0.1-3.5c0-0.8-0.1-1.3-0.2-1.4c-0.1-0.2-0.2-0.3-0.4-0.3c-0.2-0.1-1.1-0.1-2.7-0.1v-1.2
			c2.8-0.4,4.8-0.9,6-1.5c0.3-0.1,0.5-0.2,0.6-0.2s0.2,0.1,0.2,0.1c0.1,0.1,0.1,0.2,0.1,0.3c0,0.1,0,0.2,0,0.4
			c-0.1,0.5-0.1,1.5-0.1,3.1l3.8-3.3c1.1-0.4,2.2-0.6,3.2-0.6c1.1,0,2.1,0.2,3.1,0.7s1.7,1,2.2,1.7s0.8,1.6,1,2.6
			c0.1,0.6,0.2,2.3,0.2,5.2v3.6c0,1.8,0,3,0.1,3.6c0.1,0.4,0.1,0.7,0.3,0.9c0.1,0.2,0.4,0.3,0.7,0.3l2.2,0.1v1.2
			c-1.3-0.1-2.4-0.2-3.3-0.2c-0.8,0-2.1,0-3.8,0.2c0.2-3.4,0.3-5.5,0.3-6.4v-3.4c0-2.2-0.1-3.5-0.2-4.2c-0.2-0.9-0.8-1.6-1.6-2.2
			c-0.8-0.6-1.8-0.9-3-0.9c-1,0-2,0.2-2.8,0.7s-1.5,1.1-1.8,1.7c-0.4,0.6-0.5,1.7-0.5,3.2v2.5c0.1,3.6,0.1,5.5,0.1,5.8
			c0,0.7,0.1,1.2,0.2,1.5c0.1,0.1,0.1,0.2,0.3,0.3c0.1,0.1,0.3,0.1,0.5,0.2c0.1,0,0.8,0,2.2,0.1v1.2c-1.7-0.1-3.2-0.2-4.5-0.2
			C409.7,134.2,407.8,134.2,405.2,134.3"/>
		<path class="st0" d="M431.5,117.4v-1.2c2.7-0.3,4.9-0.9,6.7-1.7l0.5,0.3c-0.1,2.9-0.1,5.2-0.1,6.7v3.7c0.1,3.6,0.1,5.5,0.1,5.8
			c0,0.7,0.1,1.2,0.2,1.5c0.1,0.1,0.2,0.2,0.2,0.3c0.1,0.1,0.3,0.1,0.5,0.2c0.1,0,0.8,0,2.3,0.1v1.2c-2-0.1-3.7-0.2-5-0.2
			c-1.1,0-2.9,0-5.4,0.2v-1.2h2c0.3,0,0.5-0.1,0.7-0.2c0.2-0.1,0.3-0.2,0.4-0.3c0.1-0.3,0.2-0.8,0.3-1.5c0-0.2,0-2.1,0.1-5.9v-3.6
			c0-2-0.1-3.2-0.2-3.6c-0.1-0.2-0.2-0.4-0.5-0.5C434,117.5,433.1,117.4,431.5,117.4 M436.5,105.4c0.6,0,1.2,0.2,1.6,0.7
			c0.5,0.5,0.7,1,0.7,1.6s-0.2,1.2-0.7,1.6c-0.4,0.4-1,0.7-1.6,0.7c-0.7,0-1.2-0.2-1.6-0.7c-0.5-0.5-0.7-1-0.7-1.6s0.2-1.2,0.7-1.6
			C435.3,105.6,435.8,105.4,436.5,105.4z"/>
		<path class="st0" d="M446.1,128.1h1.2c0,0.8,0,1.4,0.1,1.9s0.2,0.9,0.3,1.4c0.2,0.5,0.4,0.8,0.8,1.1c0.3,0.3,0.7,0.5,1.1,0.7
			s0.8,0.3,1.2,0.3c0.4,0.1,1.1,0.1,1.9,0.1c1.4,0,2.6-0.4,3.4-1.1c0.9-0.7,1.3-1.8,1.3-3c0-0.6-0.1-1.1-0.4-1.5
			c-0.3-0.4-0.7-0.8-1.2-1s-1.6-0.6-3.4-1c-1.7-0.4-2.8-0.7-3.4-0.9c-0.8-0.3-1.4-0.6-1.8-1c-0.5-0.4-0.8-0.9-1.1-1.6
			c-0.2-0.6-0.4-1.3-0.4-2.1c0-1.1,0.3-2.1,0.8-3c0.6-0.9,1.5-1.6,2.7-2.2s2.5-0.8,4-0.8c0.9,0,1.9,0.1,3,0.4
			c1.1,0.2,2.1,0.5,2.8,0.9c-0.1,1.5-0.2,3.1-0.2,4.6h-1.2c-0.1-1-0.1-1.7-0.2-2s-0.2-0.6-0.4-0.8c-0.1-0.3-0.4-0.5-0.8-0.8
			s-0.8-0.5-1.4-0.8c-0.6-0.2-1.3-0.3-2.1-0.3c-1.2,0-2.2,0.3-2.9,1.1c-0.7,0.7-1.1,1.5-1.1,2.5c0,0.5,0.1,1,0.3,1.4
			c0.2,0.4,0.5,0.7,0.9,1c0.3,0.2,0.8,0.4,1.5,0.6l3.4,0.8c1.7,0.4,2.9,0.8,3.6,1.1c0.6,0.3,1.2,0.8,1.6,1.5s0.6,1.4,0.6,2.4
			c0,1.9-0.8,3.5-2.3,4.9s-3.5,2.1-6.1,2.1c-1.2,0-2.8-0.2-4.7-0.5c-1.1-0.2-1.7-0.4-1.7-0.4c-0.1,0-0.1-0.1-0.1-0.2
			c0-0.1,0-0.2,0.1-0.3c0.1-0.6,0.2-1.2,0.2-1.7C446.1,131.1,446.1,129.9,446.1,128.1"/>
		<path class="st0" d="M463.7,134.3v-1.2h1.9c0.3,0,0.5-0.1,0.7-0.2c0.2-0.1,0.3-0.2,0.4-0.3c0.1-0.3,0.2-0.8,0.3-1.5
			c0-0.2,0.1-2.1,0.2-5.9v-10.6c0-2.3,0-4.7-0.1-7.1c-0.1-1.6-0.1-2.6-0.2-2.7s-0.2-0.2-0.3-0.3c-0.2-0.1-1.1-0.1-2.8-0.1v-1.2
			c3.1-0.4,5.3-0.9,6.4-1.4c0.2-0.1,0.3-0.1,0.4-0.1s0.2,0,0.2,0.1c0.1,0.1,0.1,0.2,0.1,0.2c0,0.1,0,0.2,0,0.4v0.7
			c-0.1,2.4-0.1,4.5-0.1,6.2l-0.1,3.2v6c0.2-0.2,0.7-0.7,1.6-1.4c0.9-0.8,1.4-1.3,1.6-1.4c0.3-0.3,0.5-0.4,0.6-0.5
			c0.2-0.1,0.6-0.3,1.2-0.4c0.7-0.2,1.4-0.3,2.1-0.3c1.2,0,2.4,0.3,3.6,0.9c1.1,0.6,1.9,1.3,2.4,2.2c0.4,0.9,0.7,2.2,0.7,4v3.6v2.9
			c0,1.7,0.1,2.7,0.1,2.9c0,0.7,0.1,1.1,0.2,1.4c0.1,0.1,0.1,0.2,0.2,0.3s0.3,0.2,0.5,0.2c0.1,0,0.8,0,2.1,0.1v1.2
			c-1.6-0.1-2.7-0.1-3.4-0.1c-0.6,0-1.9,0.1-3.7,0.1c0.2-2,0.3-4,0.3-5.9v-5.1c0-1.6-0.1-2.7-0.3-3.4c-0.2-0.7-0.7-1.3-1.5-1.9
			c-0.7-0.6-1.7-0.9-2.9-0.9c-0.7,0-1.4,0.1-2,0.3c-0.6,0.2-1.1,0.6-1.6,1s-0.9,0.9-1.2,1.4c-0.2,0.2-0.3,0.5-0.3,0.9
			c-0.1,0.3-0.1,1-0.1,2.1v2.4c0,3.5,0.1,5.5,0.1,5.8c0,0.7,0.1,1.2,0.2,1.5c0.1,0.1,0.1,0.2,0.3,0.3c0.1,0.1,0.3,0.2,0.5,0.2
			c0.1,0,0.9,0,2.3,0.1v1.2c-2.4-0.1-4.1-0.2-5-0.2C468.2,134.2,466.4,134.2,463.7,134.3"/>
		<path class="st0" d="M490.3,117.4v-1.2c2.6-0.3,4.9-0.9,6.7-1.7l0.4,0.3c-0.1,2.9-0.2,5.2-0.2,6.7v3.7c0.1,3.6,0.1,5.5,0.1,5.8
			c0,0.7,0.1,1.2,0.2,1.5c0.1,0.1,0.2,0.2,0.3,0.3c0.1,0.1,0.3,0.1,0.5,0.2c0.1,0,0.8,0,2.3,0.1v1.2c-2.1-0.1-3.7-0.2-5-0.2
			c-1.1,0-2.9,0-5.4,0.2v-1.2h2c0.3,0,0.5-0.1,0.7-0.2c0.2-0.1,0.3-0.2,0.4-0.3c0.2-0.3,0.2-0.8,0.3-1.5c0-0.2,0-2.1,0.1-5.9v-3.6
			c0-2-0.1-3.2-0.2-3.6c-0.1-0.2-0.3-0.4-0.5-0.5C492.8,117.5,491.9,117.4,490.3,117.4 M495.3,105.4c0.6,0,1.2,0.2,1.6,0.7
			s0.7,1,0.7,1.6s-0.2,1.2-0.7,1.6s-1,0.7-1.6,0.7s-1.2-0.2-1.6-0.7s-0.7-1-0.7-1.6s0.2-1.2,0.7-1.6
			C494.1,105.6,494.6,105.4,495.3,105.4z"/>
		<path class="st0" d="M503.6,134.3v-1.2h1.9c0.3,0,0.5-0.1,0.7-0.2c0.2-0.1,0.3-0.2,0.4-0.3c0.2-0.3,0.2-0.8,0.3-1.5
			c0-0.2,0-2.1,0.1-5.9v-2.4c0-1.1,0-2.3,0-3.5c0-0.8-0.1-1.3-0.2-1.4c-0.1-0.2-0.2-0.3-0.5-0.3c-0.2-0.1-1.1-0.1-2.7-0.1v-1.2
			c2.7-0.4,4.8-0.9,6.1-1.5c0.3-0.1,0.4-0.2,0.5-0.2s0.2,0.1,0.2,0.1c0,0.1,0.1,0.2,0.1,0.3c0,0.1,0,0.2,0,0.4
			c0,0.5-0.1,1.5-0.1,3.1l3.8-3.3c1.1-0.4,2.2-0.6,3.2-0.6c1.1,0,2.1,0.2,3.2,0.7c1,0.5,1.7,1,2.2,1.7s0.8,1.6,1,2.6
			c0.1,0.6,0.1,2.3,0.1,5.2v3.6c0,1.8,0,3,0.1,3.6c0.1,0.4,0.2,0.7,0.3,0.9c0.2,0.2,0.4,0.3,0.7,0.3l2.2,0.1v1.2
			c-1.3-0.1-2.5-0.2-3.3-0.2s-2,0-3.8,0.2c0.2-3.4,0.3-5.5,0.3-6.4v-3.4c0-2.2-0.1-3.5-0.2-4.2c-0.2-0.9-0.8-1.6-1.6-2.2
			s-1.8-0.9-3-0.9c-1,0-2,0.2-2.8,0.7c-0.9,0.5-1.5,1.1-1.8,1.7c-0.4,0.6-0.5,1.7-0.5,3.2v2.5c0.1,3.6,0.1,5.5,0.1,5.8
			c0,0.7,0.1,1.2,0.2,1.5c0.1,0.1,0.2,0.2,0.3,0.3c0.1,0.1,0.3,0.1,0.5,0.2c0.1,0,0.8,0,2.3,0.1v1.2c-1.7-0.1-3.2-0.2-4.5-0.2
			C508.1,134.2,506.2,134.2,503.6,134.3"/>
		<path class="st0" d="M540.9,134.5c-2.1,0-3.3,0-3.8,0.1c-0.3,0-0.6,0.2-0.9,0.4c-1,0.8-1.6,1.2-1.7,1.3c-0.1,0.1-0.3,0.4-0.5,0.8
			c-0.3,0.8-0.4,1.5-0.4,2.3c0,1.4,0.6,2.6,1.7,3.6c1.1,1,2.7,1.5,4.6,1.5c1.5,0,2.8-0.3,4-0.9c1.2-0.6,2.1-1.4,2.7-2.4
			c0.6-1,0.9-2,0.9-3c0-0.9-0.2-1.6-0.4-2c-0.2-0.5-0.5-0.8-0.8-1.1s-0.7-0.5-1.3-0.6C544.5,134.6,543.2,134.6,540.9,134.5
			 M534.8,120.8c0,1,0.2,1.9,0.5,2.8c0.4,0.9,0.9,1.6,1.6,2.1c0.7,0.5,1.5,0.7,2.4,0.7c1.2,0,2.2-0.4,3.1-1.1c0.9-0.8,1.4-2,1.4-3.7
			s-0.4-3.1-1.4-4.1c-0.9-1-2-1.6-3.2-1.6c-1.3,0-2.4,0.4-3.2,1.3C535.2,118,534.8,119.2,534.8,120.8z M551.7,116.2l0.2,0.4
			c-0.6,0.8-0.9,1.3-1.1,1.7H547c0.3,0.8,0.5,1.6,0.5,2.3c0,1-0.3,2-0.8,3.1c-0.5,1-1.3,1.8-2.4,2.5c-1,0.7-2.2,1.2-3.3,1.4
			c-0.8,0.2-1.8,0.2-3.1,0.2c-0.9,0.7-1.4,1.3-1.7,1.6c-0.1,0.3-0.2,0.5-0.2,0.8s0.1,0.6,0.3,0.9c0.2,0.2,0.5,0.4,0.9,0.5
			c0.6,0.2,1.7,0.3,3.3,0.3l4.4-0.1c1.6,0,2.7,0.2,3.5,0.6c0.8,0.4,1.4,1,1.8,1.9c0.4,0.8,0.6,1.7,0.6,2.8c0,1.4-0.5,2.8-1.4,4.3
			s-2.3,2.6-4.1,3.5c-1.8,0.8-3.9,1.3-6.1,1.3c-1.9,0-3.5-0.3-4.8-0.9c-1.3-0.6-2.3-1.4-3-2.4c-0.6-1-0.9-2-0.9-3.1
			c0-0.6,0.1-1.2,0.3-1.7s0.5-1.1,0.9-1.7c1.7-0.8,2.9-1.4,3.6-2c-1.1-0.3-1.9-0.7-2.2-1s-0.5-0.7-0.5-1s0.2-1,0.6-2.2
			c0.7-0.6,1.7-1.4,3.2-2.4c-1.2-0.3-2.2-0.7-2.9-1.2c-0.6-0.5-1.2-1.1-1.5-1.9c-0.4-0.8-0.6-1.7-0.6-2.6c0-1.4,0.4-2.6,1.1-3.7
			c0.7-1.1,1.9-2,3.6-2.7c1.7-0.7,3.2-1,4.7-1c0.9,0,1.8,0.2,2.7,0.4c0.9,0.3,1.6,0.8,2.4,1.4C548.3,116.2,550.3,116.2,551.7,116.2z
			"/>
		<path class="st0" d="M555.6,128.1h1.2c0,0.8,0,1.4,0.1,1.9s0.2,0.9,0.4,1.4c0.1,0.5,0.4,0.8,0.7,1.1c0.4,0.3,0.7,0.5,1.1,0.7
			c0.4,0.2,0.8,0.3,1.2,0.3c0.4,0.1,1.1,0.1,1.9,0.1c1.4,0,2.5-0.4,3.4-1.1c0.9-0.7,1.4-1.8,1.4-3c0-0.6-0.1-1.1-0.4-1.5
			c-0.2-0.4-0.6-0.8-1.2-1c-0.5-0.2-1.7-0.6-3.4-1s-2.9-0.7-3.4-0.9c-0.8-0.3-1.4-0.6-1.8-1c-0.5-0.4-0.8-0.9-1.1-1.6
			c-0.3-0.6-0.4-1.3-0.4-2.1c0-1.1,0.3-2.1,0.8-3c0.6-0.9,1.5-1.6,2.7-2.2s2.6-0.8,4-0.8c0.9,0,1.9,0.1,3,0.4c1.1,0.2,2,0.5,2.8,0.9
			c-0.1,1.5-0.2,3.1-0.2,4.6h-1.1c-0.1-1-0.2-1.7-0.3-2s-0.2-0.6-0.3-0.8c-0.2-0.3-0.4-0.5-0.8-0.8c-0.4-0.3-0.9-0.5-1.5-0.8
			c-0.6-0.2-1.3-0.3-2.1-0.3c-1.2,0-2.2,0.3-2.9,1.1c-0.7,0.7-1.1,1.5-1.1,2.5c0,0.5,0.1,1,0.3,1.4s0.5,0.7,0.9,1
			c0.4,0.2,0.9,0.4,1.5,0.6l3.4,0.8c1.7,0.4,2.9,0.8,3.5,1.1c0.7,0.3,1.2,0.8,1.6,1.5c0.4,0.7,0.6,1.4,0.6,2.4
			c0,1.9-0.8,3.5-2.3,4.9s-3.6,2.1-6.1,2.1c-1.2,0-2.7-0.2-4.7-0.5c-1.1-0.2-1.7-0.4-1.8-0.4s-0.1-0.1-0.1-0.2c0-0.1,0-0.2,0-0.3
			c0.1-0.6,0.2-1.2,0.2-1.7C555.6,131.1,555.6,129.9,555.6,128.1"/>
	</g>
</g>
</svg>
