<svg id="图层_1" data-name="图层 1" xmlns="http://www.w3.org/2000/svg" viewBox="0 0 236.73 42.7">
  <defs>
    <style>
      .cls-1 {
        fill: #fff;
      }

      .cls-2 {
        fill: #72c091;
      }
    </style>
  </defs>
  <title>zest</title>
  <g>
    <path class="cls-1" d="M76.7,20.1V18.5l6.8-8.6c.5-.6.9-1.1,1.4-1.6H77.4V6.8H87V8.4l-7.5,9.3-.8.9h8.5v1.6H76.7Z" transform="translate(-1.17 -1.6)"/>
    <path class="cls-1" d="M95.6,17l1.7.2a4.23,4.23,0,0,1-1.5,2.3,4.65,4.65,0,0,1-2.8.8A4.52,4.52,0,0,1,89.6,19a5.31,5.31,0,0,1-1.2-3.7,5.17,5.17,0,0,1,1.3-3.8A4.16,4.16,0,0,1,93,10.2a4.08,4.08,0,0,1,3.2,1.3,5.31,5.31,0,0,1,1.2,3.7v.4H90.2a3.8,3.8,0,0,0,.9,2.4,2.72,2.72,0,0,0,3.5.3c.4-.1.7-.6,1-1.3m-5.4-2.6h5.4a3.8,3.8,0,0,0-.6-1.8,2.52,2.52,0,0,0-2-.9,2.56,2.56,0,0,0-1.9.8,2,2,0,0,0-.9,1.9" transform="translate(-1.17 -1.6)"/>
    <path class="cls-1" d="M98.7,17.2l1.6-.3a1.87,1.87,0,0,0,.8,1.5,2.86,2.86,0,0,0,1.7.5,2.65,2.65,0,0,0,1.7-.5,1.27,1.27,0,0,0,.5-1.1,1.05,1.05,0,0,0-.5-.9c-.2-.1-.8-.3-1.7-.6a18.7,18.7,0,0,1-2.5-.8,2.44,2.44,0,0,1-1.1-.9,2.84,2.84,0,0,1-.4-1.3,2.66,2.66,0,0,1,.3-1.2,2.36,2.36,0,0,1,.8-.9,9.29,9.29,0,0,1,1-.5,5.9,5.9,0,0,1,1.4-.2,6,6,0,0,1,2,.3,2.54,2.54,0,0,1,1.3.9,3.39,3.39,0,0,1,.6,1.5l-1.6.2a2.28,2.28,0,0,0-.6-1.2,2.24,2.24,0,0,0-1.5-.4,2.2,2.2,0,0,0-1.6.4c-.3.3-.5.5-.5.9a1.42,1.42,0,0,0,.2.6.92.92,0,0,0,.6.4,9.31,9.31,0,0,0,1.4.4,12.78,12.78,0,0,1,2.4.8,2.44,2.44,0,0,1,1.1.9,2.12,2.12,0,0,1,.4,1.4,2.69,2.69,0,0,1-.5,1.5,2.59,2.59,0,0,1-1.4,1.1,4.48,4.48,0,0,1-2,.4,4.77,4.77,0,0,1-2.9-.8,3.4,3.4,0,0,1-1-2.1" transform="translate(-1.17 -1.6)"/>
    <path class="cls-1" d="M112.2,18.7l.2,1.5a5.74,5.74,0,0,1-1.2.1,2.65,2.65,0,0,1-1.4-.3,1.58,1.58,0,0,1-.7-.7,7.13,7.13,0,0,1-.2-1.9V11.8h-1.2V10.5h1.2V8.1l1.6-1v3.4h1.6v1.3h-1.6v5.7c0,.5,0,.8.1.9l.3.3c.1.1.3.1.6.1a1.48,1.48,0,0,1,.7-.1" transform="translate(-1.17 -1.6)"/>
    <polygon class="cls-1" points="118.13 18.5 118.13 5.2 119.93 5.2 119.93 10.7 126.83 10.7 126.83 5.2 128.63 5.2 128.63 18.5 126.83 18.5 126.83 12.2 119.93 12.2 119.93 18.5 118.13 18.5"/>
    <path class="cls-1" d="M131.9,15.3a5.06,5.06,0,0,1,1.5-4,4.74,4.74,0,0,1,6.3.2,5.27,5.27,0,0,1,1.3,3.6,6,6,0,0,1-.6,2.9,4.36,4.36,0,0,1-1.6,1.7,4.65,4.65,0,0,1-2.3.6,4.3,4.3,0,0,1-3.3-1.3,4.78,4.78,0,0,1-1.3-3.7m1.7,0a4.45,4.45,0,0,0,.8,2.8,2.67,2.67,0,0,0,4,0,4.45,4.45,0,0,0,.8-2.8,4.14,4.14,0,0,0-.8-2.7,2.67,2.67,0,0,0-4,0,4,4,0,0,0-.8,2.7" transform="translate(-1.17 -1.6)"/>
    <path class="cls-1" d="M142.9,20.1V10.4h1.5v1.4a2.54,2.54,0,0,1,1.2-1.1,3.29,3.29,0,0,1,1.7-.4,3.42,3.42,0,0,1,1.8.4,2.34,2.34,0,0,1,1,1.2,3.64,3.64,0,0,1,3-1.7,3,3,0,0,1,2.2.8,3.56,3.56,0,0,1,.8,2.5v6.6h-1.6V14a4.14,4.14,0,0,0-.2-1.4,1.34,1.34,0,0,0-.6-.7,1.69,1.69,0,0,0-1-.3,2.19,2.19,0,0,0-1.7.7,3.39,3.39,0,0,0-.7,2.2v5.6h-1.6V13.8a2.36,2.36,0,0,0-.4-1.6,1.43,1.43,0,0,0-1.3-.5,2.41,2.41,0,0,0-2.2,1.5,5.25,5.25,0,0,0-.3,2v5h-1.6Z" transform="translate(-1.17 -1.6)"/>
    <path class="cls-1" d="M165.1,17l1.7.2a4.23,4.23,0,0,1-1.5,2.3,4.65,4.65,0,0,1-2.8.8,4.52,4.52,0,0,1-3.4-1.3,5.31,5.31,0,0,1-1.2-3.7,5.17,5.17,0,0,1,1.3-3.8,4.16,4.16,0,0,1,3.3-1.3,4.08,4.08,0,0,1,3.2,1.3,5.31,5.31,0,0,1,1.2,3.7v.4h-7.2a3.8,3.8,0,0,0,.9,2.4,2.72,2.72,0,0,0,3.5.3c.4-.1.7-.6,1-1.3m-5.4-2.6h5.4a3.8,3.8,0,0,0-.6-1.8,2.52,2.52,0,0,0-2-.9,2.56,2.56,0,0,0-1.9.8,2,2,0,0,0-.9,1.9" transform="translate(-1.17 -1.6)"/>
    <path class="cls-1" d="M181.6,18.6a4.89,4.89,0,0,1-1.8,1.4,4.65,4.65,0,0,1-2.1.5,4.22,4.22,0,0,1-3.3-1.4,3.64,3.64,0,0,1-1-2.5,3.49,3.49,0,0,1,.8-2.2,6.83,6.83,0,0,1,2.4-1.8,9.14,9.14,0,0,1-1.2-1.7,2.66,2.66,0,0,1-.3-1.2,2.88,2.88,0,0,1,.9-2.1,3.24,3.24,0,0,1,2.4-.9,3.11,3.11,0,0,1,2.2.8,2.66,2.66,0,0,1,.9,2c0,1.3-.8,2.3-2.5,3.3l2.4,3.1A5.31,5.31,0,0,0,182,14l1.7.4a9.74,9.74,0,0,1-1.2,2.9,8,8,0,0,0,2.1,2l-1.1,1.3c-.5-.6-1.2-1.2-1.9-2m-1-1.3-3-3.7a4.74,4.74,0,0,0-1.8,1.5,2.66,2.66,0,0,0-.5,1.3,3.19,3.19,0,0,0,.6,1.7,2,2,0,0,0,1.8.9,3,3,0,0,0,1.5-.5,4.34,4.34,0,0,0,1.4-1.2m-2.3-5.7a4.47,4.47,0,0,0,1.4-1.1,2,2,0,0,0,.3-1.1,1.38,1.38,0,0,0-1.5-1.5,1.5,1.5,0,0,0-1.1.4,1.28,1.28,0,0,0-.4,1,2.54,2.54,0,0,0,.2.7,3,3,0,0,0,.5.7Z" transform="translate(-1.17 -1.6)"/>
    <polygon class="cls-1" points="190.63 18.5 190.63 5.2 192.33 5.2 192.33 17 198.93 17 198.93 18.5 190.63 18.5"/>
    <path class="cls-1" d="M202,6.8h1.6V8.7H202Zm0,3.7h1.6v9.7H202Z" transform="translate(-1.17 -1.6)"/>
    <path class="cls-1" d="M208.9,20.1l-3.7-9.7h1.7l2.1,5.8c.2.6.4,1.3.6,1.9.1-.5.4-1.1.6-1.8l2.2-5.9h1.7l-3.7,9.7Z" transform="translate(-1.17 -1.6)"/>
    <path class="cls-1" d="M215.5,6.8h1.6V8.7h-1.6Zm0,3.7h1.6v9.7h-1.6Z" transform="translate(-1.17 -1.6)"/>
    <path class="cls-1" d="M219.6,20.1V10.4h1.5v1.4a3.37,3.37,0,0,1,3.1-1.6,4.15,4.15,0,0,1,1.6.3,2.42,2.42,0,0,1,1.1.8,3.34,3.34,0,0,1,.5,1.2,6.22,6.22,0,0,1,.1,1.6v6h-1.6V14.2a4.87,4.87,0,0,0-.2-1.5,1.78,1.78,0,0,0-.7-.8,2,2,0,0,0-1.1-.3,2.41,2.41,0,0,0-1.8.7,3.24,3.24,0,0,0-.8,2.5v5.3Z" transform="translate(-1.17 -1.6)"/>
    <path class="cls-1" d="M229.7,20.9l1.6.2a1.68,1.68,0,0,0,.6,1.1,2.86,2.86,0,0,0,1.7.5,3.2,3.2,0,0,0,1.8-.5,2,2,0,0,0,.8-1.3,9.85,9.85,0,0,0,.1-2.1,3.51,3.51,0,0,1-2.7,1.3,3.81,3.81,0,0,1-3.1-1.4,5.84,5.84,0,0,1-1.1-3.5,7.51,7.51,0,0,1,.5-2.6,3.35,3.35,0,0,1,1.5-1.8,4,4,0,0,1,2.2-.6,3.5,3.5,0,0,1,2.8,1.4V10.4h1.5v8.4a7.81,7.81,0,0,1-.5,3.2,3.61,3.61,0,0,1-1.5,1.5,4.87,4.87,0,0,1-2.5.5,4.65,4.65,0,0,1-2.8-.8,2.61,2.61,0,0,1-.9-2.3m1.4-5.8a4.25,4.25,0,0,0,.8,2.8,2.46,2.46,0,0,0,3.8,0,4.14,4.14,0,0,0,.8-2.7,4.14,4.14,0,0,0-.8-2.7,2.46,2.46,0,0,0-1.9-.9,2.62,2.62,0,0,0-1.9.9,3.54,3.54,0,0,0-.8,2.6" transform="translate(-1.17 -1.6)"/>
  </g>
  <g>
    <path class="cls-1" d="M79.8,40.2a15.77,15.77,0,0,0-1.9.1V39a13.43,13.43,0,0,0,1.9.1h2.9c0-.2.1-.3.1-.5v-.9H79.1a10.9,10.9,0,0,0-1.7.1v-.6a1.76,1.76,0,0,0-.1-.6,10.9,10.9,0,0,0,1.7.1h4V35.4H80.3a9.15,9.15,0,0,0-1.6.1c0-.2,0-.3.1-.3v-.5l-.1-.4a9.15,9.15,0,0,0,1.6.1H83V33.2H79.5a11.8,11.8,0,0,0-1.6.1v-.6a1.76,1.76,0,0,0-.1-.6,13.61,13.61,0,0,0,1.6.1h1.9l-.3-.4a4.3,4.3,0,0,0-.9-1l-.1-.2c.4-.2.8-.5,1.2-.7l1.7,1.9a3.13,3.13,0,0,0-1,.5h2.6l.3-.5c0-.1.1-.3.4-.7a3.08,3.08,0,0,0,.4-.9l.1-.4a9.14,9.14,0,0,0,1.4.7l-.2.3a13.69,13.69,0,0,1-1,1.4h2c.1,0,.7,0,1.8-.1,0,.2,0,.3-.1.4v.3a1.34,1.34,0,0,0,.1.5c-1,0-1.5-.1-1.8-.1H84.4v1.2H87a11.56,11.56,0,0,0,1.7-.1v.6a1.76,1.76,0,0,0,.1.6,10.9,10.9,0,0,0-1.7-.1H84.4v1.3h3.8a13.43,13.43,0,0,0,1.9-.1c0,.2,0,.3-.1.4v.2a1.76,1.76,0,0,0,.1.6,14.16,14.16,0,0,0-1.9-.1H83.6a2.35,2.35,0,0,0,.8.2c-.1.4-.2.8-.3,1.1h3.6a16.36,16.36,0,0,0,2-.1v1.2a19.17,19.17,0,0,0-2-.1h-3a4.06,4.06,0,0,0,.9,1,4.32,4.32,0,0,0,2.2.7,12.36,12.36,0,0,0,2.5.2h.4l-.3.3-.4.4a3.05,3.05,0,0,0-.5.9l-.3-.1a18.23,18.23,0,0,1-3.7-1.3,4.94,4.94,0,0,1-1.9-1.9c-.2.3-.4.6-.7,1a3.32,3.32,0,0,1-1.3.9,11.43,11.43,0,0,1-1.4.6c-.4.1-.8.3-1.3.4a7.35,7.35,0,0,0-.8.2H78a2.09,2.09,0,0,0-.4-.6c-.1-.2-.4-.4-.9-.8H77a9.59,9.59,0,0,0,3.1-.5,5.71,5.71,0,0,0,1.7-1l.4-.5H79.8Z" transform="translate(-1.17 -1.6)"/>
    <path class="cls-1" d="M97.6,42.6l.8-.1a3.8,3.8,0,0,0,2.4-.9,13.26,13.26,0,0,0,1.1-1,2.47,2.47,0,0,0,.4-.9,4.64,4.64,0,0,0,.2-1.4h-1.4a4.87,4.87,0,0,0-1.2.1c0-.3,0-.5.1-.6V34c.4,0,.9.1,1.3.1h3V32.7h-2.5c-.7,0-1.7,0-3,.1v-.6a1.76,1.76,0,0,0-.1-.6c1.4.1,2.4.1,3,.1h2.5V30.6l-.1-.8a5.38,5.38,0,0,1,.8.1,2.64,2.64,0,0,0,.7-.1c0,.4-.1.6-.1.8v1.1H108c.8,0,1.9,0,3.2-.1v1.3c-1-.1-2.1-.1-3.1-.1h-2.6v1.4h2.7a5.7,5.7,0,0,0,1.3-.1,3.54,3.54,0,0,1-.1.6v3.1l.1.6c-.5,0-.9-.1-1.3-.1h-1.4v3.5a.35.35,0,0,0,.1.2c.1.1.3.1.8.1h1.1c.4,0,.6,0,.7-.1s.2-.2.2-.3a1.69,1.69,0,0,1,.2-.5l.1-.5.1-.6a2.85,2.85,0,0,0,.7.8,3.6,3.6,0,0,0,.9.5,10.54,10.54,0,0,0-.7,1.1,2.58,2.58,0,0,1-.9.9,11.15,11.15,0,0,1-2.6.2,5.14,5.14,0,0,1-1.6-.2c-.3-.1-.4-.4-.5-.6V38.7h-1.8a8,8,0,0,1-.4,1.8,4.77,4.77,0,0,1-.8,1.6,7.27,7.27,0,0,1-3,1.9h-.3c-.2-.3-.3-.6-.4-.7S98.2,43,97.6,42.6Zm3.7-5.2h6.8V35.2h-6.8Z" transform="translate(-1.17 -1.6)"/>
    <path class="cls-1" d="M118.7,42l.5-.1a10.33,10.33,0,0,0,2.1-.7c.6-.3,1.4-.7,2.3-1.2a14.16,14.16,0,0,0,2.2-1.8c-.1-.2-.3-.5-.4-.7a7.21,7.21,0,0,1-1.9,1.4,23,23,0,0,1-3.5,1.7l-.2.1c-.2-.4-.4-.6-.5-.8l-.5-.5h.4a7.3,7.3,0,0,0,2.6-.8,9.72,9.72,0,0,0,2.9-1.9,2.18,2.18,0,0,0-.5-.4,17.4,17.4,0,0,1-4.1,1.8l-.3.1a6.82,6.82,0,0,0-.5-.7,3.81,3.81,0,0,0-.6-.5h.4a12.88,12.88,0,0,0,2.5-.6,6.75,6.75,0,0,0,1.9-.9,15.14,15.14,0,0,0,1.4-.9h-1.6a14.16,14.16,0,0,0-1.9.1v-.6a1.76,1.76,0,0,0-.1-.6,14.16,14.16,0,0,0,1.9.1h4.9a15.56,15.56,0,0,0,2-.1c0,.2,0,.3-.1.4v.2a1.76,1.76,0,0,0,.1.6,15.56,15.56,0,0,0-2-.1h-1.6L125,35.7c.4.4.8.7,1,.9a8.65,8.65,0,0,1,.7,1l.5-.3a9.35,9.35,0,0,0,2-1.6l.4-.4a13.07,13.07,0,0,0,1.2,1.1l-.7.4a8.34,8.34,0,0,0-1.2.8,6.37,6.37,0,0,0,.8,2,4.26,4.26,0,0,0,1.2,1.1,5.07,5.07,0,0,0,1.5.7l.2.1a2.18,2.18,0,0,0-.9.7,5.55,5.55,0,0,0-.6.8l-.3-.2c-.8-.7-1.4-1.2-1.7-1.5a5.67,5.67,0,0,1-.8-1.3,9.83,9.83,0,0,1-.5-1.6l-.8.5c0,.2.1.4.1.6s.1.4.1.7v.9a4.48,4.48,0,0,1-.1,1.1,2.28,2.28,0,0,1-.6,1.2,2.38,2.38,0,0,1-1.1.6,15.69,15.69,0,0,1-1.6.3,1.27,1.27,0,0,0-.1-.6c0-.3-.2-.6-.6-1.1a7.38,7.38,0,0,0,1.2.2,1.8,1.8,0,0,0,1.1-.3,1.23,1.23,0,0,0,.4-.8c0-.3.1-.5.1-.7V39.6a18.49,18.49,0,0,1-2.7,2,30.61,30.61,0,0,1-3.4,1.8l-.4.2a4.35,4.35,0,0,0-.4-.7C119.3,42.4,119.1,42.2,118.7,42Zm.7-8a.9.9,0,0,1,.1-.5V31.7l-.1-.5c.6,0,1.1.1,1.4.1h4.7a3.92,3.92,0,0,0-.4-.9l-.2-.4,1.5-.3.5,1.5h3.7a12.27,12.27,0,0,0,1.7-.1,2.77,2.77,0,0,1-.1.8V33a2.25,2.25,0,0,0,.1.7,3.79,3.79,0,0,0-1.5,0,3.55,3.55,0,0,1,.1-.7v-.6H121v1.5c-.4,0-.6,0-.7-.1A6.38,6.38,0,0,1,119.4,34Z" transform="translate(-1.17 -1.6)"/>
    <path class="cls-1" d="M139.6,42.9l.4-.6a4.77,4.77,0,0,0,.8-1.6c.2-.7.4-1.3.5-1.8s.1-1,.2-1.3.1-.7.1-1.2V32.5a5.7,5.7,0,0,0-.1-1.3l-.1-1.1c.6,0,1.1.1,1.6.1h7.8a6.6,6.6,0,0,0,1.4-.1,4.33,4.33,0,0,1-.1.5v2.8l.1.6c-.5,0-1-.1-1.4-.1h-2.5v1.5h2.9a21.05,21.05,0,0,0,2.3-.1c0,.2,0,.3-.1.4v.2a3.75,3.75,0,0,0,.1.8c-1.2-.1-2-.1-2.3-.1h-2.9v1.6h2.6a6.15,6.15,0,0,0,1.3-.1,1.48,1.48,0,0,1-.1.7v4.6h-1.4V42.2h-5.9v1.6c-.4,0-.6,0-.7-.1h-.7a1.48,1.48,0,0,1,.1-.7V39l-.1-.6c.5,0,.9.1,1.3.1h2.1V36.9h-4.3a3.75,3.75,0,0,1-.1,1,9.32,9.32,0,0,1-.2,1.4c-.1.6-.2,1-.2,1.2s-.2.6-.4,1.1-.4,1-.7,1.6l-.2.4C140.8,43.2,140.3,43,139.6,42.9Zm3.4-7.3h4.2V34.1H143Zm0-2.5h8V31.6h-8Zm2.2,8.3h5.9v-2h-5.9Z" transform="translate(-1.17 -1.6)"/>
    <path class="cls-1" d="M160.9,42.8l.4-.5c.2-.3.3-.5.5-.8a3.93,3.93,0,0,0,.4-1.3,4.91,4.91,0,0,0,.3-1.2c0-.2.1-.6.1-1.1s.1-.9.1-1.1a3.75,3.75,0,0,1,.1-1V33.7h-.2a6.6,6.6,0,0,0-1.4.1v-.6a1.76,1.76,0,0,0-.1-.6,6.15,6.15,0,0,0,1.4.1h1.3l-.1-.3-.3-.7c-.1-.1-.2-.4-.4-.7l-.4-.6a3.58,3.58,0,0,0,1.1-.6l1.2,2.3a3.13,3.13,0,0,0-1,.5h.7a6.15,6.15,0,0,0,1.3-.1,3.54,3.54,0,0,1-.1.6v.4c.2-.2.3-.4.4-.5a5.56,5.56,0,0,0,.4-.8c.2-.4.4-.7.5-.9s.2-.6.5-1.3l.1-.4a3.82,3.82,0,0,0,1.3.4l-.3.5-.2.4-.2.5h4a16.23,16.23,0,0,0,2.1-.1c0,.2,0,.3-.1.4v.4l.1.4c-.8,0-1.5-.1-2.1-.1H168l-.9,1.5a2.2,2.2,0,0,0,.8.1h.1v-.7l-.1-.4a3.54,3.54,0,0,1,.6.1,1.76,1.76,0,0,0,.6-.1,5.53,5.53,0,0,1-.1.9V34h2.4V32.7a2.4,2.4,0,0,0,1.2,0c0,.2-.1.4-.1.6V34h.5a4.48,4.48,0,0,0,1.1-.1.37.37,0,0,1-.1.3v.2a1.34,1.34,0,0,0,.1.5c-.4,0-.8-.1-1.1-.1h-.5v4.8h.5a7.57,7.57,0,0,0,1.5-.1c0,.2,0,.3-.1.4v.2a2.8,2.8,0,0,0,.1.6c-.5,0-1-.1-1.5-.1h-5a7.57,7.57,0,0,0-1.5.1v-.6a1.76,1.76,0,0,0-.1-.6c.5,0,.9.1,1.4.1h0V34.8h.2a2.77,2.77,0,0,0-.9.1v-.5a2.8,2.8,0,0,0-.1-.6c-.1.2-.2.3-.2.4l-.3.6-.2.3a6.57,6.57,0,0,0-1.2-.6l.3-.3.3-.3.1-.2c-.4,0-.7-.1-1.1-.1H164l-.1,1.9h1.3a6.15,6.15,0,0,0,1.3-.1v1.4l-.1,3.5a2.77,2.77,0,0,1-.1.9,1.88,1.88,0,0,1-.2.8,1,1,0,0,1-.6.5,7.52,7.52,0,0,1-1.5.3c0-.1-.1-.3-.1-.4v-.3a4.56,4.56,0,0,0-.4-.8,3.75,3.75,0,0,0,1,.1c.4,0,.6-.1.6-.4s.1-.6.1-.9l.2-3.6H164c0,.4-.1.7-.1,1a5.64,5.64,0,0,1-.1.7,7.75,7.75,0,0,0-.1.9c-.1.4-.1.8-.2,1.2a10.26,10.26,0,0,1-.4,1.4c-.2.5-.4.9-.5,1.2l-.2.4c-.1-.1-.2-.1-.3-.2l-.3-.2C161.5,43.1,161.3,43,160.9,42.8Zm5.7-.1c.4-.2.7-.4,1.2-.7s.7-.5.8-.6l.4-.3a3.74,3.74,0,0,0,1,.6l-.5.3c-.3.2-.7.5-1.2.8a6.78,6.78,0,0,1-.9.6l-.5.4c-.1-.1-.2-.2-.2-.3l-.4-.3L166,43Zm2.6-6.9h2.4v-.9h-2.5Zm0,1.9h2.5v-.9h-2.4Zm0,2h2.5V38.6h-2.5Zm1.7,2a5.5,5.5,0,0,0,.9-.7l2.8,1.9a1.38,1.38,0,0,0-.4.3l-.3.3-.4.3-.3-.3a5.31,5.31,0,0,0-1.1-.9l-.7-.5Z" transform="translate(-1.17 -1.6)"/>
    <path class="cls-1" d="M182.2,32.5V30.9c1.2.1,2,.1,2.2.1h8.8c.5,0,1.3,0,2.5-.1a.75.75,0,0,1-.1.5v.3a2.64,2.64,0,0,0,.1.7c-1.2-.1-2.1-.1-2.5-.1h-3.9V42.6l.1,1.3c-.5,0-.8,0-.9-.1a4.53,4.53,0,0,0-.8.1c0-.5.1-1,.1-1.4V32.2h-3.4C184.3,32.4,183.6,32.4,182.2,32.5Zm7.6,3.2a5.24,5.24,0,0,0,1-1.1l4.3,3.8c-.4.3-.7.5-.7.6l-.5.6-.5-.6a17,17,0,0,0-1.9-1.9c-.7-.6-1.2-1-1.4-1.2Z" transform="translate(-1.17 -1.6)"/>
    <path class="cls-1" d="M203.8,43.7a4.48,4.48,0,0,1,.1-1.2V36.7c.5,0,1,.1,1.6.1h2.2a8.6,8.6,0,0,0,1.6-.1c0,.4-.1.6-.1.8v5l.1,1c-.4,0-.6,0-.7-.1a2.64,2.64,0,0,0-.7.1V42.3h-2.8v1.4A2.85,2.85,0,0,0,203.8,43.7Zm1.3-2.5h2.8V38h-2.8Zm.7-5.6V30.5c.6,0,1.2.1,1.7.1h4.7a10.28,10.28,0,0,0,1.7-.1c0,.3-.1.6-.1.8v3.5l.1.7c-.9,0-1.5-.1-1.7-.1h-4.7C207.3,35.6,206.7,35.6,205.8,35.6Zm1.3-1.1h5.5V31.7h-5.5Zm3.3,9.2c0-.4.1-.8.1-1V37.6l-.1-.8c.9,0,1.4.1,1.6.1h2.4a13.61,13.61,0,0,0,1.6-.1,5.38,5.38,0,0,1-.1.8v4.9l.1,1.1a2.85,2.85,0,0,0-1.3,0V42.5h-3.1v1.3A1.63,1.63,0,0,0,210.4,43.7Zm1.3-2.5h3.1V38h-3.1Z" transform="translate(-1.17 -1.6)"/>
    <path class="cls-1" d="M223.7,42.7a6.26,6.26,0,0,0,.8-1.7l.3-1.5a6.64,6.64,0,0,0,.1-1.3V32.9l-.1-2.4a3.55,3.55,0,0,1,.7.1,1.76,1.76,0,0,0,.6-.1c0,.5-.1.9-.1,1.2v2.6h1.3V30.9l-.1-1a2.4,2.4,0,0,0,1.2,0,3.75,3.75,0,0,1-.1,1.1v3.2h.1a3.4,3.4,0,0,0,1-.1c0,.2,0,.3-.1.4v.2a2.14,2.14,0,0,0,.1.6c-.4,0-.7-.1-1-.1h-2.5l-.1,1.7h1.4a5.74,5.74,0,0,0,1.2-.1c0,.3-.1.5-.1.7v4.8l.1,1.1H227a3.75,3.75,0,0,1,.1-1.1V37.9h-1.5a9.49,9.49,0,0,1-.2,2l-.3,1.5c-.2.5-.4,1.2-.8,2.1C224.4,43.3,224.1,43,223.7,42.7Zm5.4-1.7V39.6a8.17,8.17,0,0,0,1.4.1h.2a16.29,16.29,0,0,0,1.1-1.7h-.7a6.15,6.15,0,0,0-1.3.1,1.48,1.48,0,0,1,.1-.7V32.1l-.1-.6c.5,0,.9.1,1.3.1h1a3.26,3.26,0,0,0,.3-1l.2-.9a5.27,5.27,0,0,0,1.2.3c-.3.5-.5,1.1-.7,1.5h2.6a4.87,4.87,0,0,0,1.2-.1,1.48,1.48,0,0,1-.1.7v6c-.5,0-.9-.1-1.2-.1h-.9v1.7h1.2a12.13,12.13,0,0,0,1.8-.1v.8a2.64,2.64,0,0,0,.1.7A11.48,11.48,0,0,0,236,41h-1.2v1.8l.1,1.1h-1.3a3.08,3.08,0,0,1,.1-1v-2h-2.9A11.56,11.56,0,0,0,229.1,41Zm2-6.8h1.8a5.53,5.53,0,0,1,.1-.9v-.8h-1.9v1.7Zm0,2.7h1.2a2.94,2.94,0,0,0,.3-.9l.2-.8h-1.6v1.7Zm.8,2.8h1.8V37.9h-.8A16.18,16.18,0,0,1,231.9,39.7Zm3.9-2.8V35.2h-2c-.1.5-.2.8-.2.9l-.2.8Zm0-2.7V32.5H234v.8l-.1.9Z" transform="translate(-1.17 -1.6)"/>
  </g>
  <path class="cls-2" d="M15.6,34.4a1.27,1.27,0,0,0,.1,1.8L18,38.5a1.21,1.21,0,1,0,1.7-1.7l-2.3-2.3a1.43,1.43,0,0,0-1-.4,1.14,1.14,0,0,0-.8.3M7.3,30.2,3.7,31.7a2.09,2.09,0,0,0-1.2,1.8.84.84,0,0,0,1.2.8L5,33.7a.8.8,0,0,1,1.2.8v8c0,.7.1,1.3.2,1.3H15a1.24,1.24,0,0,0,1.3-1.2A1.31,1.31,0,0,0,15,41.4H9.9a1.32,1.32,0,0,1-1.3-1.3V30.7c0-.4-.3-.6-.7-.6a1.76,1.76,0,0,0-.6.1m3.6-2.7a1.27,1.27,0,0,0,.1,1.8l2.1,2.1a1.21,1.21,0,1,0,1.7-1.7l-2.1-2.1a1.43,1.43,0,0,0-1-.4,1.14,1.14,0,0,0-.8.3M4.7,18.8,1.6,21.9a1.27,1.27,0,0,0-.1,1.8,1.39,1.39,0,0,0,1.8-.2l3.1-3.1a1.27,1.27,0,0,0,.1-1.8,1.14,1.14,0,0,0-.8-.3,2.35,2.35,0,0,0-1,.5M34.9,16v5.6A2,2,0,0,1,33,23.5h-.7c-1,0-1.9.5-1.9,1.2s.9,1.2,1.9,1.2H33a1.9,1.9,0,0,1,1.9,1.9V39.7A1.9,1.9,0,0,1,33,41.6H31.4c-1.1,0-1.9.5-1.9,1.2s.9,1.2,1.9,1.2h10c1.1,0,1.9-.5,1.9-1.2s-.9-1.2-1.9-1.2H39.1a1.9,1.9,0,0,1-1.9-1.9V27.8a1.9,1.9,0,0,1,1.9-1.9h.6c1.1,0,1.9-.5,1.9-1.2s-.9-1.2-1.9-1.2h-.6a1.9,1.9,0,0,1-1.9-1.9V16c0-1.1-.5-1.9-1.2-1.9s-1.1.9-1.1,1.9m16.3-2.5a1.2,1.2,0,1,0,0,2.4h1.2c.7,0,.9.4.4,1L47,22.7c-.5.5-.3,1,.4,1H48a3.45,3.45,0,0,0,2.3-1l3.3-3.3a1,1,0,0,1,1.6,0,1.55,1.55,0,0,1-.3,1.9l-8,8.1c-.5.5-.3,1,.4,1h.6a3.45,3.45,0,0,0,2.3-1l6.1-6.1a1.08,1.08,0,0,1,1.7.1l.4.5a1.68,1.68,0,0,1-.2,2.1l-1.9,1.9c-.5.5-.3,1,.4,1h.4a4,4,0,0,0,1.8-.4c.2-.2.4.1.4.7s-.4,1.1-.8,1.1H57a2.75,2.75,0,0,0-1.5,1l-8.3,8.4c-.5.5-.3,1,.4,1h.6a3.45,3.45,0,0,0,2.3-1l7-7.2a1.08,1.08,0,0,1,1.7.1L61,35c.4.6.7,1.1.6,1.1a4.52,4.52,0,0,0-1.1.9l-5.9,6c-.5.5-.3,1,.4,1h.4a3.88,3.88,0,0,0,2.3-.9l4.4-4.2c.5-.5,1.1-.7,1.4-.4a2.44,2.44,0,0,0,1.7.6h.6c.7,0,1-.5.5-1.1l-4-5.4c-.4-.6-.8-1.1-.7-1.1a8.87,8.87,0,0,0,.1-1.3V27a3.45,3.45,0,0,1,1-2.3L65.5,22c.5-.5.4-.9-.4-.9h-.6a3.45,3.45,0,0,0-2.3,1h0a1.08,1.08,0,0,1-1.7-.1l-3.1-4.3c-.4-.6-.6-1.2-.4-1.4a3.17,3.17,0,0,1,1.7-.3h2.7a1.2,1.2,0,1,0,0-2.4H51.2ZM11.8,14.8v2.8a3.45,3.45,0,0,1-1,2.3L7,23.7a1.24,1.24,0,0,0,0,1.7,1.27,1.27,0,0,0,1.8-.1l3.4-3.4a1.39,1.39,0,0,1,1.9,0l3.3,3.3a1.21,1.21,0,1,0,1.7-1.7l-3.3-3.3L14.6,19a3,3,0,0,1-.3-1.6V14.8a1.24,1.24,0,0,0-1.2-1.3c-.8-.1-1.3.5-1.3,1.3M2.2,5.5a1.17,1.17,0,0,0,.2,1.7L4.8,9.6a1.27,1.27,0,0,0,1.8.1A1.27,1.27,0,0,0,6.4,8L4,5.6a1.43,1.43,0,0,0-1-.4.83.83,0,0,0-.8.3M55.6,3.1V5.3a1.32,1.32,0,0,1-1.3,1.3H47.1c-.5,0-.8.6-.8,1.3v5.5a1.24,1.24,0,0,0,1.2,1.3,1.31,1.31,0,0,0,1.2-1.3V10.3A1.32,1.32,0,0,1,50,9h4.2a1.32,1.32,0,0,1,1.3,1.3h0a1.24,1.24,0,0,0,1.2,1.3,1.31,1.31,0,0,0,1.2-1.3h0A1.32,1.32,0,0,1,59.2,9h3.2a1.32,1.32,0,0,1,1.3,1.3v3.1a1.24,1.24,0,0,0,1.2,1.3,1.31,1.31,0,0,0,1.2-1.3V8c0-.7-.2-1.3-.5-1.3H59.2a1.32,1.32,0,0,1-1.3-1.3V3.1a1.24,1.24,0,0,0-1.2-1.3c-.6-.1-1.1.5-1.1,1.3m-23.7.3-2,3.9A3.67,3.67,0,0,1,27.1,9H25.3c-1.1,0-1.9.5-1.9,1.2s.9,1.2,1.9,1.2h.6c1.1,0,1.5.8,1,1.7L22.8,21c-.5.9-.3,1.7.4,1.7A3.21,3.21,0,0,0,25.4,21l.1-.2c.5-.9.9-.8.9.2V42c0,1,.5,1.9,1.2,1.9s1.2-.9,1.2-1.9V16.4a10,10,0,0,1,.8-3.5,2.88,2.88,0,0,1,2.2-1.6h9.6c1.1,0,1.9-.5,1.9-1.2S42.4,9,41.4,9h-8c-1.1,0-1.5-.8-1-1.7l2-3.9c.5-.9.3-1.7-.4-1.7h0a2.82,2.82,0,0,0-2.1,1.7M11.4,2.8,8.5,9.4c-.3.7-.2,1.2.3,1.2h6.9a.81.81,0,0,1,.8,1.2L16,13a.8.8,0,0,0,.8,1.2A2.3,2.3,0,0,0,18.6,13l1.5-3.6c.3-.7.1-1.2-.4-1.2H12.9A.81.81,0,0,1,12.1,7l1.8-4.2c.3-.7,0-1.2-.7-1.2h0a2.3,2.3,0,0,0-1.8,1.2" transform="translate(-1.17 -1.6)"/>
</svg>
