<?xml version="1.0" encoding="UTF-8" standalone="no"?>
<svg width="68px" height="68px" viewBox="0 0 68 68" version="1.1" xmlns="http://www.w3.org/2000/svg" xmlns:xlink="http://www.w3.org/1999/xlink">
    <!-- Generator: Sketch 49.3 (51167) - http://www.bohemiancoding.com/sketch -->
    <title> </title>
    <desc>Created with Sketch.</desc>
    <defs>
        <polygon id="path-1" points="0.0717185687 0.159577922 12.8801257 0.159577922 12.8801257 17.0454004 0.0717185687 17.0454004"></polygon>
    </defs>
    <g id="-" stroke="none" stroke-width="1" fill="none" fill-rule="evenodd">
        <g id="Group">
            <rect id="Rectangle-6" fill="#3D62AC" transform="translate(34.000000, 34.000000) rotate(-315.000000) translate(-34.000000, -34.000000) " x="10" y="10" width="48" height="48"></rect>
            <g id="Page-1" transform="translate(19.000000, 25.000000)">
                <path d="M6.72625424,0.806515852 L6.72625424,4.77935319 L7.65553936,4.77935319 L7.65553936,0.795653685 L6.72625424,0.806515852 Z M10.5982756,5.66733529 L10.3217026,5.66733529 L10.3217026,9.25185019 C10.3217026,10.9517792 10.2193706,11.4840254 11.013135,11.4840254 L11.2233305,11.4840254 L11.2233305,6.86760468 C11.2233305,6.07195099 11.2233305,5.67548192 10.5927441,5.67548192 L10.5982756,5.66733529 Z M3.9328674,9.17038394 L3.9328674,5.65647313 L3.74203206,5.65647313 C3.27462377,5.65647313 3.28292096,5.86828537 3.11144573,6.29190986 L3.11144573,15.3726809 C3.28292096,15.9157892 3.49035068,16.1680631 3.95775897,16.1680631 L10.3880801,16.1680631 C10.982712,16.1680631 11.217799,15.799021 11.217799,15.052247 L11.217799,12.2661014 L9.47815513,12.2661014 C8.14507349,12.2661014 7.64171071,11.5247585 7.64171071,9.39848943 L7.64171071,5.65647313 L6.71242559,5.65647313 L6.71242559,9.39848943 C6.71242559,12.0054094 5.44295573,13.1703767 3.06442833,12.9015381 C3.70054612,12.3204122 3.87755281,11.0685475 3.91903876,9.15952178 L3.9328674,9.17038394 Z M3.10314854,17.0454545 L0.0608460498,17.0454545 L0.0608460498,4.69788695 L3.10314854,4.69788695 L3.10314854,5.97147595 C3.27462377,5.28172839 3.32717263,4.90969919 3.9328674,4.85538836 L3.9328674,0.782075977 L0,0.782075977 L0,0 L14.265633,0 L14.265633,0.795653685 L10.3161712,0.795653685 L10.3161712,4.77935319 L12.2162274,4.77935319 C13.6627039,4.77935319 14.3181818,5.49625617 14.3181818,6.93006213 L14.3181818,14.8947456 C14.3181818,16.4396172 13.7982247,16.9667038 12.3434509,16.9667038 L4.07391961,16.9667038 C3.3520642,16.9667038 3.10038281,16.4887685 3.10038281,15.3726809 L3.10038281,17.0454545 L3.10314854,17.0454545 Z" id="Fill-1" fill="#FFFFFF"></path>
                <path d="M1.36347776,6.13636364 C1.73999239,6.13636364 2.04545455,6.44175476 2.04545455,6.81818182 C2.04545455,7.19460888 1.73999239,7.5 1.36347776,7.5 C0.986963142,7.5 0.681818182,7.19460888 0.681818182,6.81818182 C0.681818182,6.44175476 0.986963142,6.13636364 1.36347776,6.13636364" id="Fill-3" fill="#3E62AD"></path>
                <path d="M1.36347776,15 C1.73999239,15 2.04545455,15.3053911 2.04545455,15.6818182 C2.04545455,16.0585624 1.73999239,16.3636364 1.36347776,16.3636364 C0.986963142,16.3636364 0.681818182,16.0585624 0.681818182,15.6818182 C0.681818182,15.3053911 0.986963142,15 1.36347776,15" id="Fill-5" fill="#3E62AD"></path>
                <g id="Group-9" transform="translate(17.045455, 0.000000)">
                    <mask id="mask-2" fill="white">
                        <use xlink:href="#path-1"></use>
                    </mask>
                    <g id="Clip-8"></g>
                    <path d="M12.8801809,17.0454004 L2.70397195,17.0454004 C0.873522244,17.0454004 0.0717185687,16.0797619 0.0717185687,13.9880411 L0.0717185687,0.159577922 L3.16151547,0.159577922 L3.16151547,1.30676407 C3.45919439,0.641179654 3.88641876,0.313798701 4.85663153,0.313798701 L12.3231354,0.313798701 L12.3231354,1.16066017 L5.01649613,1.16066017 C4.00769536,1.16066017 3.52810155,1.46369048 3.15324662,2.07786797 L3.15324662,14.2937771 C3.4919942,13.6119589 3.73482302,12.9409632 4.18685397,12.077868 C4.66644778,11.1606602 5.06059671,9.96477273 5.76896228,8.49020563 C4.98590135,6.80730519 4.26678627,4.74561688 3.28830464,2.29972944 L6.21823694,2.29972944 C6.55781141,3.46504329 6.95719729,4.61277056 7.41446518,5.73858225 C7.63744874,5.22992424 7.86925242,4.44799784 8.37916538,3.36845238 C8.54454255,3.01942641 8.654794,2.65687229 8.83119632,2.2862013 L11.659146,2.2862013 C11.1078888,3.46044372 10.4270861,5.49778139 9.12060638,8.39821429 C9.79314023,9.87548701 10.0935754,11.2255952 10.6558578,12.2456169 C10.6963752,12.3633117 10.7490203,12.4766775 10.8129662,12.5838203 C11.3917863,13.6958333 11.8327921,14.4371753 12.3950745,14.8457251 C10.2369023,15.2623918 8.76780174,14.7269481 8.21654449,13.3359848 C7.94091586,12.6460498 7.80585783,11.8830628 7.46959091,11.1714827 C7.13304836,11.8857684 6.79705706,12.4945346 6.51288395,13.0816558 C5.78825629,14.5859848 4.79323694,15.1947511 3.26074178,14.8376082 C3.48400097,15.754816 3.92225048,16.2878247 4.77945551,16.2878247 L12.8743926,16.2878247 L12.8801809,17.0454004 Z" id="Fill-7" fill="#FFFFFF" mask="url(#mask-2)"></path>
                </g>
                <path d="M19.0907444,1.36363636 C19.467647,1.36363636 19.7727273,1.66897233 19.7727273,2.04545455 C19.7727273,2.42193676 19.467647,2.72727273 19.0907444,2.72727273 C18.7141712,2.72727273 18.4090909,2.42193676 18.4090909,2.04545455 C18.4090909,1.66897233 18.7141712,1.36363636 19.0907444,1.36363636" id="Fill-10" fill="#3E62AD"></path>
                <path d="M19.0907444,15 C19.467647,15 19.7727273,15.3052622 19.7727273,15.6816535 C19.7727273,16.0583741 19.467647,16.3636364 19.0907444,16.3636364 C18.7141712,16.3636364 18.4090909,16.0583741 18.4090909,15.6816535 C18.4090909,15.3052622 18.7141712,15 19.0907444,15" id="Fill-12" fill="#3E62AD"></path>
            </g>
        </g>
    </g>
</svg>